<?xml version="1.0" standalone="no"?>
<!DOCTYPE svg PUBLIC "-//W3C//DTD SVG 1.1//EN" "http://www.w3.org/Graphics/SVG/1.1/DTD/svg11.dtd" >
<svg xmlns="http://www.w3.org/2000/svg" xmlns:xlink="http://www.w3.org/1999/xlink" version="1.1">
<metadata></metadata>
<defs>
<font id="minion_cyrillic_semibolnormal" horiz-adv-x="995" >
<font-face units-per-em="2048" ascent="1638" descent="-410" />
<missing-glyph horiz-adv-x="450" />
<glyph horiz-adv-x="0" />
<glyph unicode="&#xd;" horiz-adv-x="450" />
<glyph unicode=" "  horiz-adv-x="450" />
<glyph unicode="&#x09;" horiz-adv-x="450" />
<glyph unicode="&#xa0;" horiz-adv-x="450" />
<glyph unicode="!" horiz-adv-x="561" d="M139 123q0 61 39 102t101 41q61 0 102 -41t41 -102q0 -66 -41 -107t-102 -41q-59 0 -99.5 40t-40.5 108zM143 1292q0 35 31 52.5t105 17.5q139 0 139 -70q0 -43 -15 -151l-88 -727q-6 -16 -34 -17q-29 0 -35 17l-88 727q-14 109 -15 151z" />
<glyph unicode="&#x22;" horiz-adv-x="860" d="M131 1397q0 57 115 57q119 0 119 -57q0 -18 -5.5 -46t-11.5 -61l-69 -401q-10 -12 -33 -12t-29 12l-70 401q-6 45 -11 72t-5 35zM496 1397q0 57 118 57q115 0 115 -57q0 -29 -6 -58.5t-10 -48.5l-70 -401q-10 -12 -33 -12q-22 0 -28 12l-70 401q-6 45 -11 72t-5 35z" />
<glyph unicode="#" d="M20 383l19 133h235l66 293h-213l18 133h224l75 336h95l-76 -336h217l76 336h92l-74 -336h203l-21 -133h-211l-65 -293h192l-22 -133h-201l-84 -383h-98l86 383h-217l-86 -383h-92l86 383h-224zM367 516h217l67 293h-217z" />
<glyph unicode="$" d="M74 360l65 13q39 -111 103 -183q96 -109 225 -108v475l-78 33q-125 51 -192 125q-78 86 -78 203q0 141 90 237t258 117v158h86v-152q45 0 96 -6t88 -19l74 -16q6 -43 14 -86q27 -147 31 -180l-61 -8q-29 94 -74 147q-64 74 -168 86v-436l74 -27q127 -47 202 -123 q92 -94 93 -225q0 -160 -99.5 -259t-269.5 -120v-174h-86v168q-115 0 -213 33q-57 18 -115 53q-6 18 -27.5 114.5t-37.5 159.5zM291 995q0 -70 51 -123q43 -42 125 -77v403q-86 -12 -131 -67.5t-45 -135.5zM553 84q82 12 131 67.5t49 143.5q0 70 -31 117q-43 65 -149 110 v-438z" />
<glyph unicode="%" horiz-adv-x="1740" d="M82 905q0 150 78 262q92 136 254 136q160 0 250 -134q78 -115 77 -264q0 -147 -75 -260q-92 -137 -252 -137t-254 135q-78 113 -78 262zM258 905q0 -119 29 -205q41 -123 127 -122q88 0 127 122q25 80 24 205q0 121 -24 203q-39 125 -127 125q-86 0 -127 -121 q-29 -86 -29 -207zM406 -29l827 1356l78 -49l-828 -1360zM999 373q0 150 78 262q92 135 254 135q160 0 250 -133q78 -115 78 -264q0 -147 -76 -260q-92 -137 -252 -138q-160 0 -254 136q-78 113 -78 262zM1176 373q0 -119 28 -205q41 -123 127 -123q88 0 127 123 q25 80 25 205q0 121 -25 202q-39 125 -127 125q-86 0 -127 -120q-29 -86 -28 -207z" />
<glyph unicode="&#x26;" horiz-adv-x="1466" d="M94 332q0 131 82 223q63 72 240 176q-98 78 -141.5 144.5t-43.5 152.5q0 137 104.5 235.5t250.5 98.5q141 0 233 -82t92 -205q0 -94 -59 -155q-43 -45 -182 -127q59 -45 141 -121q98 -90 188 -187q59 86 107 183q39 72 39 102q0 41 -82 41l-66 4v62h480v-62 q-113 0 -164 -51q-14 -14 -76 -92q-39 -51 -86 -118t-90 -130q72 -66 191.5 -210t179.5 -230l-21 -21q-104 0 -189 27.5t-112 54.5q-35 47 -88 113q-45 55 -80 94q-113 -152 -214 -217.5t-216 -65.5q-203 0 -317 119q-100 102 -101 244zM307 399q0 -127 90 -200 q81 -66 187 -66q90 0 172 55q61 41 131 127q-92 94 -191.5 183.5t-216.5 177.5q-172 -129 -172 -277zM420 1106q0 -70 45 -132.5t137 -127.5q115 86 115 239q0 76 -33 129q-43 70 -123 70q-66 0 -103.5 -50t-37.5 -128z" />
<glyph unicode="'" horiz-adv-x="495" d="M131 1397q0 57 115 57q119 0 119 -57q0 -18 -5.5 -46t-11.5 -61l-69 -401q-10 -12 -33 -12t-29 12l-70 401q-6 45 -11 72t-5 35z" />
<glyph unicode="(" horiz-adv-x="737" d="M168 557q0 289 103.5 519.5t322.5 377.5l33 -47q-141 -109 -224.5 -344.5t-83.5 -505.5q0 -274 82 -507.5t226 -346.5l-33 -47q-217 145 -326 385q-100 223 -100 516z" />
<glyph unicode=")" horiz-adv-x="737" d="M111 -297q141 109 224 346.5t83 507.5q0 274 -81 505.5t-226 344.5l32 47q217 -145 326 -385q100 -221 100 -512t-100 -514q-109 -242 -326 -387z" />
<glyph unicode="*" horiz-adv-x="888" d="M82 1233l37 41l266 -176l131 295l49 -13l-57 -307l295 -8l4 -53l-295 -54l82 -307l-45 -20l-156 287l-270 -168l-33 49l225 205z" />
<glyph unicode="+" horiz-adv-x="1286" d="M113 516v105h469v464h123v-464h469v-105h-469v-514h-123v514h-469z" />
<glyph unicode="," horiz-adv-x="495" d="M82 213q0 41 36 69.5t83 28.5q80 0 146.5 -72.5t66.5 -177.5q0 -119 -97 -213q-81 -79 -206 -122l-29 53q156 84 156 221q0 111 -127 152q-29 0 -29 61z" />
<glyph unicode="-" horiz-adv-x="686" d="M92 393v139h502v-139h-502z" />
<glyph unicode="." horiz-adv-x="495" d="M106 123q0 61 39 102t101 41q61 0 102 -41t41 -102q0 -66 -41 -107t-102 -41q-59 0 -99.5 40t-40.5 108z" />
<glyph unicode="/" horiz-adv-x="655" d="M33 -92l434 1454h137l-434 -1454h-137z" />
<glyph unicode="0" d="M63 639q0 268 93 444q115 220 344 220q225 0 340 -220q92 -176 92 -444q0 -266 -92 -444q-113 -219 -340 -220q-227 0 -342 220q-94 180 -95 444zM297 639q0 -256 39 -399q51 -186 164 -187q106 0 157 187q41 152 41 399q0 254 -39 399q-48 187 -159 187t-162 -185 q-41 -150 -41 -401z" />
<glyph unicode="1" d="M201 1145v53q86 16 201.5 47t213.5 58v-1106q0 -94 27 -117t158 -23v-57h-584v57q131 0 157.5 22.5t26.5 117.5v847q0 61 -11 77t-54 16z" />
<glyph unicode="2" d="M57 0v37q186 193 326.5 356.5t196.5 290.5q47 109 47 213q0 109 -58 176q-63 74 -172 74q-90 0 -161 -57q-41 -33 -105 -119l-49 37l127 180q53 53 121.5 84t156.5 31q150 0 253.5 -92.5t103.5 -245.5q0 -133 -72 -252q-51 -84 -209 -256l-256 -277h361q90 0 123.5 18.5 t72.5 100.5l58 -16l-74 -283h-791z" />
<glyph unicode="3" d="M86 104q0 6 4 23q14 49 57 78q14 8 31 8q18 0 35 -12q55 -47 96 -68q72 -37 146 -37q90 0 147 72q66 82 66 229q0 139 -84 217q-72 66 -166 66q-86 0 -152 -29l-16 62q176 76 246 129q94 72 94 162q0 78 -53.5 125t-133.5 47q-68 0 -133 -52q-51 -41 -98 -112l-45 41 l90 135q47 53 114.5 84t155.5 31q143 0 227.5 -73t84.5 -186q0 -76 -62 -131q-45 -39 -155 -94v-8q145 -16 229 -109q78 -86 78 -194q0 -254 -238 -412q-182 -121 -336 -121q-59 0 -115.5 22.5t-88.5 55.5q-25 25 -25 51z" />
<glyph unicode="4" d="M41 348v70q86 133 203 307q135 201 198 293q109 155 197 272h127v-827h188v-115h-188v-151q0 -94 24.5 -117t143.5 -23v-57h-565v57q131 0 157.5 22.5t26.5 117.5v151h-512zM201 463h352v569q-98 -141 -179 -271t-173 -298z" />
<glyph unicode="5" d="M84 106q0 6 4 23q14 47 55 74q18 12 35 12q16 0 35 -14q55 -47 94 -68q72 -39 144 -39q115 0 172 80t57 215q0 145 -80 227q-86 88 -240 89q-59 0 -118 -13q-33 -6 -86 -24l82 610h598l-37 -180h-492l-55 -303q57 18 129 35.5t98 17.5q195 0 309 -113q104 -102 105 -248 q0 -96 -49 -193t-144 -175q-80 -66 -184 -105t-197 -39q-63 0 -118.5 21.5t-89.5 56.5q-27 20 -27 53z" />
<glyph unicode="6" d="M70 487q0 303 178 519q143 172 348 243q140 50 281 66l12 -62q-98 -18 -212 -70.5t-198 -148.5q-113 -129 -151 -313l114 57q45 20 70 28.5t53 8.5q164 0 268.5 -108.5t104.5 -274.5q0 -190 -124 -323.5t-314 -133.5q-186 0 -305 136q-125 141 -125 376zM303 479 q0 -186 68 -306t166 -120q100 0 145 94q35 74 35 207q0 137 -62 228q-68 98 -184 98q-84 0 -156 -33q-8 -33 -10 -63.5t-2 -79.5v-25z" />
<glyph unicode="7" d="M90 958q12 66 27 179q8 69 18 141h803l12 -21q-150 -322 -284 -626q-160 -358 -275 -635l-194 -21l-13 25q330 557 586 1098h-434q-96 0 -123 -20.5t-57 -119.5h-66z" />
<glyph unicode="8" d="M82 319q0 74 27 132q20 43 55 77q23 23 85 61t107 58q-102 53 -161 125q-68 82 -68 178q0 143 110.5 248t274.5 105q156 0 254 -84t98 -209q0 -94 -57 -158q-23 -27 -74 -61q-25 -18 -90 -58q127 -70 191 -141q84 -96 84 -223q0 -182 -144 -295q-125 -98 -282 -99 q-180 0 -291 88q-119 94 -119 256zM291 328q0 -125 67.5 -200t157.5 -75q92 0 144.5 63.5t52.5 178.5q0 86 -49 151q-55 74 -230 164q-143 -84 -143 -282zM324 1040q0 -94 73 -161q52 -50 181 -109q41 33 63 82q31 66 31 156q0 102 -60 163q-51 53 -120 54q-82 0 -130 -62 q-39 -51 -38 -123z" />
<glyph unicode="9" d="M63 866q0 166 121 297q129 139 318 140q203 0 317 -152q104 -139 105 -365q0 -256 -135.5 -457.5t-348.5 -291.5q-68 -29 -163 -48.5t-158 -19.5l-8 54q219 39 368.5 191.5t194.5 371.5l-115 -64q-31 -18 -62.5 -26.5t-58.5 -8.5q-170 0 -272.5 109t-102.5 270zM285 938 q0 -137 67.5 -226t184.5 -89q39 0 74.5 10t70.5 26l8 138q0 166 -47 282q-59 145 -176 146q-96 0 -143 -95q-39 -76 -39 -192z" />
<glyph unicode=":" horiz-adv-x="495" d="M106 123q0 61 39 102t101 41q61 0 102 -41t41 -102q0 -66 -41 -107t-102 -41q-59 0 -99.5 40t-40.5 108zM106 745q0 61 39 102.5t101 41.5q61 0 102 -41t41 -103q0 -66 -41 -106.5t-102 -40.5q-59 0 -99.5 40t-40.5 107z" />
<glyph unicode=";" horiz-adv-x="495" d="M82 213q0 41 36 69.5t83 28.5q80 0 146.5 -72.5t66.5 -177.5q0 -119 -97 -213q-81 -79 -206 -122l-29 53q156 84 156 221q0 111 -127 152q-29 0 -29 61zM106 745q0 61 39 102.5t101 41.5q61 0 102 -41t41 -103q0 -66 -41 -106.5t-102 -40.5q-59 0 -99.5 40t-40.5 107z " />
<glyph unicode="&#x3c;" horiz-adv-x="1286" d="M23 514v98l1058 516v-110l-931 -451l931 -458v-109z" />
<glyph unicode="=" horiz-adv-x="1286" d="M113 311v105h1061v-105h-1061zM113 717v104h1061v-104h-1061z" />
<glyph unicode="&#x3e;" horiz-adv-x="1286" d="M205 0v109l932 452l-932 457v110l1059 -516v-98z" />
<glyph unicode="?" horiz-adv-x="684" d="M61 1214q0 33 39 70t94.5 57.5t88.5 20.5q125 0 228 -109.5t103 -253.5q0 -57 -18 -98t-72 -86q-80 -55 -127 -92q-90 -72 -90 -125q0 -72 90 -168l-37 -45q-88 31 -159 104q-86 86 -86 175q0 55 37.5 108t138 121t125.5 88q70 59 69 113q0 45 -32.5 75.5t-83.5 30.5 q-61 0 -119 -29q-51 -33 -103 -65q-18 0 -49 31q-37 37 -37 77zM168 123q0 61 39 102t100 41t102.5 -41t41.5 -102q0 -66 -41.5 -107t-102.5 -41q-59 0 -99 40t-40 108z" />
<glyph unicode="@" horiz-adv-x="1548" d="M86 602q0 338 254 557q233 203 549 203q264 0 430 -162q160 -156 160 -377q0 -207 -140.5 -355.5t-359.5 -148.5q-57 0 -81 23t-24 66q0 12 1.5 22t7.5 41l26 123q-55 -82 -172 -174q-127 -100 -184 -101q-41 0 -67.5 40t-26.5 120q0 92 33 187q43 125 131 215 q68 70 152.5 112.5t182.5 42.5q25 0 49.5 -5t61.5 -15l61 -8q-37 -156 -90 -459q-12 -61 -12 -94q0 -53 45 -54q113 0 203 113q100 125 100 313q0 201 -140 323t-347 122q-283 0 -459 -184.5t-176 -464.5q0 -229 121 -379q150 -184 448 -185q100 0 177.5 17.5t138.5 44.5 l16 -58q-90 -51 -185.5 -72.5t-203.5 -21.5q-287 0 -473 156q-207 172 -207 477zM627 516q0 -39 10 -54.5t29 -15.5q25 0 86 54q80 70 166 188l57 246q-20 12 -50 16t-69 4q-29 0 -56.5 -16t-54.5 -45q-43 -49 -77 -152q-41 -117 -41 -225z" />
<glyph unicode="A" horiz-adv-x="1335" d="M0 0v57q100 12 134 43t87 166l414 1065l82 25l141 -381l260 -709q51 -131 88 -164.5t129 -44.5v-57h-538v57l57 9q72 12 72 49q0 14 -15.5 61t-44 123t-67.5 172h-379q-14 -31 -30.5 -78t-61.5 -184q-18 -53 -19 -84q0 -53 88 -62l58 -6v-57h-455zM442 565h326l-160 451z " />
<glyph unicode="B" horiz-adv-x="1234" d="M72 0v57q119 0 147.5 41t28.5 209v717q0 166 -27.5 208t-136.5 42v57h565q125 0 189.5 -14t126.5 -53q114 -75 114 -231q0 -122 -100 -206q-84 -70 -191 -90q166 -23 263 -106q106 -92 106 -240q0 -106 -47 -180t-137 -129q-68 -41 -172.5 -61.5t-218.5 -20.5h-510z M473 311q0 -143 28.5 -186t127.5 -43q115 0 188 63q86 74 86 224q0 152 -97 229.5t-263 77.5h-70v-365zM473 750h82q135 0 211 63.5t76 190.5q0 129 -82 194q-70 55 -176 55q-74 0 -91.5 -8t-18.5 -42t-1 -52v-401z" />
<glyph unicode="C" horiz-adv-x="1351" d="M84 643q0 319 222 519t568 200q119 0 230 -21q111 -27 139 -32q12 -84 21.5 -174.5t15.5 -149.5l-57 -8q-47 168 -146 240q-88 63 -239 63q-238 0 -369 -178q-119 -160 -119 -406q0 -289 132 -467t356 -178q158 0 258 84q86 72 172 248l57 -12q-27 -104 -47 -176 q-31 -106 -55 -164q-90 -27 -206 -44.5t-179 -17.5q-373 0 -578 215q-176 186 -176 459z" />
<glyph unicode="D" horiz-adv-x="1517" d="M63 0v57q125 0 155 40t30 210v717q0 166 -27.5 208t-140.5 42v57h608q182 0 329.5 -43t244.5 -137q76 -76 124 -186.5t48 -239.5q0 -358 -254 -551q-231 -174 -615 -174h-502zM477 311q0 -145 30 -186t148 -41q248 0 382 158.5t134 421.5q0 313 -151 458 q-135 131 -397 131q-111 0 -134 -18q-8 -6 -10 -29.5t-2 -70.5v-824z" />
<glyph unicode="E" horiz-adv-x="1146" d="M55 0v57q131 0 162 41t31 209v717q0 168 -27.5 209t-144.5 41v57h925l25 -311l-61 -4q-29 139 -76 186t-227 47h-103q-59 0 -70.5 -9t-11.5 -64v-435h176q129 0 157 25t44 145h66v-434h-66q-16 123 -43 146.5t-158 23.5h-176v-336q0 -94 9.5 -138t35 -62.5t71.5 -23.5 t126 -5q88 0 148.5 11t90.5 48q51 57 105 207l61 -12q-6 -59 -29.5 -169t-39.5 -167h-1000z" />
<glyph unicode="F" horiz-adv-x="1097" d="M80 0v57q115 0 141.5 41t26.5 209v717q0 166 -27.5 208t-140.5 42v57h926q4 -63 9 -134t15 -169l-61 -8q-29 135 -76 182t-227 47h-107q-59 0 -70.5 -9t-11.5 -64v-455h205q129 0 156.5 23.5t44.5 140.5h65v-420h-65q-16 117 -44 139.5t-157 22.5h-205v-320 q0 -168 33 -209t172 -41v-57h-602z" />
<glyph unicode="G" horiz-adv-x="1435" d="M84 651q0 334 235 531q217 180 539 180q113 0 236 -21q41 -6 157 -32q0 -51 4 -95q18 -141 29 -237l-65 -8q-37 176 -154 252q-92 59 -240 59q-215 0 -345 -155.5t-130 -432.5q0 -268 113 -438q135 -203 395 -203q86 0 139.5 22.5t53.5 133.5v172q0 109 -31 135 q-39 33 -195 33v61h570v-61q-80 -12 -97.5 -37t-17.5 -131v-141q0 -51 1 -98.5t11 -84.5q-121 -35 -211 -55q-137 -31 -235 -31q-344 0 -553 186.5t-209 495.5z" />
<glyph unicode="H" horiz-adv-x="1576" d="M59 1274v57h586v-57q-115 0 -141.5 -41t-26.5 -209v-274h623v274q0 168 -28 209t-144 41v57h581v-57q-123 0 -151.5 -41t-28.5 -209v-717q0 -168 27.5 -209t148.5 -41v-57h-594v57q127 0 158 41t31 209v348h-623v-348q0 -168 27.5 -209t148.5 -41v-57h-585v57 q123 0 151.5 41t28.5 209v717q0 168 -30 209t-159 41z" />
<glyph unicode="I" horiz-adv-x="724" d="M72 0v57q119 0 147.5 41t28.5 209v717q0 168 -27.5 209t-148.5 41v57h577v-57q-115 0 -143.5 -42t-28.5 -208v-717q0 -168 27.5 -209t144.5 -41v-57h-577z" />
<glyph unicode="J" horiz-adv-x="716" d="M35 -231q96 45 149 114q45 59 66 150q14 70 19 148.5t5 207.5v635q0 168 -29.5 209t-156.5 41v57h578v-57q-111 -10 -136.5 -47t-25.5 -203v-662q0 -199 -31 -301q-43 -141 -168 -233q-51 -39 -112.5 -68.5t-133.5 -48.5z" />
<glyph unicode="K" horiz-adv-x="1374" d="M68 1274v57h573v-57q-115 0 -143.5 -42t-28.5 -208v-344q76 70 235.5 243t221.5 251q32 40 32 60q0 24 -43 30l-81 10v57h512v-57q-102 -10 -150.5 -31.5t-155.5 -114.5q-88 -76 -174 -159q-100 -98 -190 -197q233 -293 469 -563q74 -84 118 -112.5t111 -39.5v-57h-364 l-537 670l-4 -363q0 -166 29.5 -208t154.5 -42v-57h-573v57q115 0 141.5 41t26.5 209v717q0 166 -30 208t-150 42z" />
<glyph unicode="L" horiz-adv-x="1101" d="M59 0v57q127 0 158 41t31 209v717q0 166 -30 208t-150 42v57h589v-57q-123 0 -151.5 -41t-28.5 -209v-713q0 -168 47 -200q23 -16 70 -22.5t98 -6.5q84 0 144.5 11t91.5 48q49 55 100 207l66 -12q-10 -51 -35 -168t-39 -168h-961z" />
<glyph unicode="M" horiz-adv-x="1814" d="M43 0v57q78 0 112.5 23.5t45.5 83.5q20 129 22 137q14 115 15 242l22 422q0 211 -22.5 254t-153.5 55v57h377l452 -977l428 977h388v-57q-125 -12 -147.5 -45t-22.5 -205l20 -717q0 -168 25.5 -202.5t152.5 -47.5v-57h-571v57q119 12 141.5 46t22.5 204l-9 787h-8 l-465 -1069h-61l-449 1028h-8l-14 -531v-214t6 -151.5t43 -69.5t143 -30v-57h-485z" />
<glyph unicode="N" horiz-adv-x="1511" d="M35 1274v57h334l817 -962l4 389q0 164 -3 240.5t-13.5 150.5t-57.5 99.5t-143 25.5v57h500v-57q-152 0 -163.5 -82t-16.5 -176t-5 -258v-774h-94l-844 1032l-4 -443q0 -164 3 -240.5t13.5 -150t57.5 -99.5t143 -26v-57h-500v57q152 0 166 107q8 57 13.5 151.5t5.5 257.5 v402q0 178 -43 238.5t-170 60.5z" />
<glyph unicode="O" horiz-adv-x="1531" d="M84 643q0 281 176 485q201 234 541 234q270 0 458.5 -188.5t188.5 -483.5q0 -322 -197.5 -521.5t-496.5 -199.5q-297 0 -483.5 194.5t-186.5 479.5zM350 709q0 -289 117 -467q125 -190 338 -191q168 0 268 137q109 150 109 426q0 315 -119 490.5t-326 175.5 q-168 0 -274 -150q-113 -158 -113 -421z" />
<glyph unicode="P" horiz-adv-x="1173" d="M76 0v57q115 0 143.5 42t28.5 208v717q0 166 -27.5 208t-136.5 42v57h534q121 0 205 -19.5t149.5 -64.5t101.5 -114.5t36 -171.5q0 -182 -127 -297q-111 -100 -278 -121q-25 -2 -53.5 -3t-41.5 -1l-137 36v-268q0 -168 33 -209t172 -41v-57h-602zM473 655 q29 -10 58.5 -17t66.5 -7q92 0 162 61q100 88 100 266q0 152 -75.5 223.5t-211.5 71.5q-72 0 -86 -12t-14 -61v-525z" />
<glyph unicode="Q" horiz-adv-x="1531" d="M84 643q0 281 176 485q201 233 541 234q270 0 458.5 -188.5t188.5 -483.5q0 -256 -129 -437t-344 -249q168 -115 301 -190q113 -66 203 -105l-11 -41q-80 0 -168 12.5t-126 24.5q-59 14 -162 68q-139 72 -314 198q-270 0 -446 201q-168 193 -168 471zM350 709 q0 -254 96.5 -432.5t268.5 -215.5l129 29l43 -27q137 33 216 171.5t79 379.5q0 315 -117 490.5t-324 175.5q-174 0 -282.5 -152.5t-108.5 -418.5z" />
<glyph unicode="R" horiz-adv-x="1302" d="M68 0v57q123 0 151.5 41t28.5 209v717q0 168 -27.5 209t-144.5 41v57h551q119 0 197.5 -15.5t141 -56t98.5 -104t36 -154.5q0 -127 -72 -217t-201 -137q37 -68 76 -133q53 -90 103 -160q123 -178 168 -224t67 -62q35 -25 76 -35l-8 -53l-86 4q-154 0 -240 51 q-63 39 -133 137q-43 61 -123 205q-49 88 -70 127q-45 78 -118 78h-66v-275q0 -168 27.5 -209t144.5 -41v-57h-577zM473 651h78q68 0 109.5 11.5t82.5 42.5q57 47 84 114.5t27 147.5q0 147 -90 223q-76 63 -189 63q-72 0 -87 -11t-15 -62v-529z" />
<glyph unicode="S" horiz-adv-x="999" d="M76 365l61 20q49 -125 117 -207q106 -127 246 -127q98 0 156.5 66.5t58.5 165.5q0 90 -48.5 153.5t-168.5 122.5l-66 33q-133 68 -203 139q-104 106 -104 240q0 168 117.5 279.5t318.5 111.5q47 0 95.5 -6t91.5 -23q23 -8 49 -15t37 -11q8 -78 20 -156q6 -37 20 -121 l-65 -12q-47 152 -119 211q-61 51 -153 51q-98 0 -153.5 -61.5t-55.5 -153.5q0 -154 239 -262l54 -25q139 -61 213 -143q94 -102 94 -250q0 -184 -130 -300t-337 -116q-55 0 -108.5 10.5t-96.5 24.5l-119 43q-10 35 -28.5 134.5t-32.5 183.5z" />
<glyph unicode="T" horiz-adv-x="1257" d="M47 1008q0 76 6 149q18 223 19 227h37q20 -35 40.5 -44t65.5 -9h844q39 0 54 9.5t44 43.5h33q0 -76 4 -136t20 -236l-61 -4q-14 80 -31.5 121.5t-44.5 68.5q-45 51 -227 51h-107v-942q0 -168 33 -209t172 -41v-57h-631v57q135 0 166 41t31 209v942h-70q-123 0 -178 -14 t-84 -47q-20 -23 -37.5 -65.5t-35.5 -114.5h-62z" />
<glyph unicode="U" horiz-adv-x="1484" d="M51 1274v57h578v-57q-115 0 -141.5 -39t-26.5 -207v-432q0 -252 84 -380t264 -128q184 0 277.5 138.5t93.5 408.5v123q0 164 -3 240.5t-13.5 150.5t-57.5 99.5t-143 25.5v57h499v-57q-152 0 -163 -82t-16 -176t-5 -258v-146q0 -166 -33 -282.5t-117 -206.5 q-66 -72 -168 -113t-210 -41q-104 0 -198.5 24.5t-166.5 84.5q-80 66 -117 180.5t-37 296.5v473q0 166 -29.5 206t-150.5 40z" />
<glyph unicode="V" horiz-adv-x="1382" d="M0 1274v57h551v-57l-66 -10q-71 -8 -71 -42q0 -15 14 -63q27 -82 131 -352q80 -207 195 -500q57 156 161 438q113 307 129 357q10 33 16.5 57.5t6.5 42.5q0 33 -20.5 47.5t-67.5 18.5l-61 6v57h464v-57q-96 -12 -127.5 -43t-105.5 -178q-14 -27 -86 -201 q-86 -207 -168 -410q-104 -260 -178 -454h-88l-412 1077q-49 131 -88 165t-129 44z" />
<glyph unicode="W" horiz-adv-x="1953" d="M2 1274v57h553v-57l-68 -8q-77 -10 -77 -53q0 -30 14 -74l238 -799l315 975h80l356 -975q35 113 92 317q68 246 119 449q16 70 16 96q0 55 -84 64l-73 8v57h471v-57q-102 -10 -134 -40t-81 -169q-31 -86 -66 -191q-41 -121 -121 -374q-96 -303 -159 -516h-90l-349 958 l-323 -958h-90l-338 1089q-39 125 -80 162q-33 29 -121 39z" />
<glyph unicode="X" horiz-adv-x="1382" d="M20 0v57q94 10 137.5 26.5t84.5 68.5q115 139 348 499l-291 459q-61 98 -102 125t-144 39v57h565v-57l-65 -8q-66 -10 -66 -35q0 -12 17 -39q57 -92 112 -182q68 -109 111 -172q51 74 107 163q63 100 102 175q20 41 20 55q0 29 -61 35l-70 8v57h478v-57 q-111 -14 -146 -31.5t-105.5 -106.5t-152.5 -204q-72 -100 -117 -170l348 -541q66 -100 109 -126.5t150 -37.5v-57h-594v57l57 9q68 6 68 38q0 16 -15.5 45t-77.5 127q-119 193 -184 293q-63 -94 -147 -239q-45 -82 -90 -162q-23 -41 -23 -62q0 -40 56 -40h3l78 -9v-57h-500 z" />
<glyph unicode="Y" horiz-adv-x="1249" d="M0 1274v57h528v-57l-86 -12q-45 -6 -45 -31q0 -20 21 -60q41 -82 119 -225q94 -174 145 -256q125 213 238 469q18 41 18 64q0 35 -68 43l-82 8v57h461v-57q-90 -8 -124.5 -36t-102.5 -136q-74 -119 -119 -195q-59 -104 -139 -258q-16 -29 -21.5 -52.5t-5.5 -70.5v-219 q0 -168 32 -209t169 -41v-57h-623v57q131 0 162 41t31 209v199q0 39 -3 53t-26 57q-78 143 -274 486q-68 117 -95.5 139.5t-109.5 32.5z" />
<glyph unicode="Z" horiz-adv-x="1239" d="M47 29l823 1220h-264q-150 0 -221.5 -15t-95 -42t-39.5 -68q-23 -53 -39 -125l-57 5q0 78 6 153q18 225 18 227h33q23 -35 46.5 -44t70.5 -9h829l17 -24l-816 -1213q129 -12 316 -12q131 0 227 13.5t133 47.5q70 63 123 213l62 -12q-18 -113 -31 -172q-23 -117 -43 -172 h-1082z" />
<glyph unicode="[" horiz-adv-x="737" d="M258 -332v1774h344v-58q-158 -16 -185.5 -38.5t-27.5 -141.5v-1298q0 -119 27.5 -141.5t185.5 -38.5v-58h-344z" />
<glyph unicode="\" horiz-adv-x="655" d="M51 1362h137l416 -1454h-137z" />
<glyph unicode="]" horiz-adv-x="737" d="M135 -274q158 16 185.5 38.5t27.5 141.5v1298q0 119 -27.5 141.5t-185.5 38.5v58h344v-1774h-344v58z" />
<glyph unicode="^" horiz-adv-x="1286" d="M172 360l424 918h94l424 -918h-127l-348 770l-350 -770h-117z" />
<glyph unicode="_" horiz-adv-x="1024" d="M0 -154h1024v-102h-1024v102z" />
<glyph unicode="`" horiz-adv-x="593" d="M-2 1280q0 20 29 35l36 22q25 12 41 13q25 0 48 -33l215 -313l-45 -25l-291 250q-33 29 -33 51z" />
<glyph unicode="a" horiz-adv-x="919" d="M72 223q0 74 37.5 128.5t115.5 86.5q117 45 178 70q104 41 152 72v55q0 176 -147 176q-23 0 -44.5 -10t-35.5 -25q-45 -37 -70 -151q-10 -45 -65 -45q-35 0 -70 27.5t-35 62.5q0 45 62.5 92t138.5 82q106 51 205 69q111 0 176 -49q51 -39 71 -94q14 -39 15 -104v-439 q0 -59 15 -86.5t42 -27.5q20 0 34.5 5t47.5 19l20 -51l-210 -111q-63 0 -105 45q-31 35 -41 84q-84 -51 -166 -102q-49 -27 -71 -27q-111 0 -180.5 76t-69.5 172zM295 268q0 -74 39 -114.5t84 -40.5h2q60 0 135 65v326l-162 -82q-98 -53 -98 -154z" />
<glyph unicode="b" horiz-adv-x="1075" d="M-2 1331v53q170 27 356 70v-616l162 67q18 2 35.5 5t52.5 3q164 0 282 -123.5t118 -297.5q0 -223 -151 -370t-368 -147q-180 0 -342 74v1153q0 90 -19.5 109.5t-125.5 19.5zM354 215q0 -41 12.5 -71.5t52.5 -58.5t101 -28q115 0 181.5 101.5t66.5 275.5q0 162 -84 263.5 t-211 101.5q-64 0 -119 -33v-551z" />
<glyph unicode="c" horiz-adv-x="851" d="M121 618.5q49 100.5 137 169t193 101.5q77 24 144 24h5q45 0 100.5 -15t82 -37.5t26.5 -55.5q0 -41 -25.5 -73t-50.5 -32q-18 0 -39 19q-55 47 -108.5 67.5t-100.5 20.5q-74 0 -129 -62q-73 -81 -73 -233v-4q0 -193 112 -295q84 -78 185 -78q68 0 114.5 21t112.5 80 l37 -37q-66 -98 -157 -161t-183 -63q-199 0 -320 131q-112 120 -112 294q0 118 49 218.5z" />
<glyph unicode="d" horiz-adv-x="1093" d="M72 418q0 207 154.5 351t391.5 144l101 -10v299q0 90 -19.5 109.5t-126.5 19.5v53q171 27 357 70v-1243q0 -68 12 -84t57 -16h76v-58q-74 -12 -139 -24q-123 -25 -217 -58v119l-148 -84q-53 -31 -88 -31q-154 0 -272 107q-139 125 -139 336zM313 467q0 -170 86 -270 q74 -86 166 -86q80 0 154 51v573q-27 45 -73 68.5t-103 23.5q-76 0 -135 -59q-94 -94 -95 -301z" />
<glyph unicode="e" horiz-adv-x="872" d="M72 406q0 199 130 353t326 154q127 0 216.5 -89t89.5 -203q0 -57 -6.5 -69.5t-54.5 -21t-223 -19.5t-276 -11q0 -180 99 -279q86 -86 213 -86q55 0 104.5 19.5t110.5 66.5l28 -35q-59 -86 -139 -141q-102 -70 -188 -70q-197 0 -313.5 123t-116.5 308zM285 584l305 4 q27 0 32 15t5 42q0 66 -45 127.5t-109 61.5q-68 0 -122 -68.5t-66 -181.5z" />
<glyph unicode="f" horiz-adv-x="620" d="M37 819l57 70h94v49q0 98 18.5 161.5t41.5 106.5q41 76 114 140q111 94 236 108q57 0 101 -19.5t75 -54.5q18 -18 19 -43q0 -14 -7.5 -29.5t-20.5 -31.5t-28.5 -28.5t-34.5 -12.5q-10 0 -26 12q-33 31 -86 58.5t-92 27.5q-49 0 -74 -55q-12 -27 -18.5 -86t-6.5 -174v-129 h230q2 -6 2 -23q0 -27 -7.5 -46t-23.5 -25h-201v-605q0 -82 23.5 -101t144.5 -32v-57h-508v57q90 12 109.5 32t19.5 101v605h-139z" />
<glyph unicode="g" horiz-adv-x="948" d="M61 -240q0 37 10.5 61.5t29 44t81.5 62.5q47 33 97 64q-59 20 -98.5 48t-57 54.5t-22.5 49t-5 49.5q63 25 119 55q41 23 92 59q-102 31 -163.5 105.5t-61.5 169.5q0 154 127 247q113 84 260 84q113 0 207 -53q63 0 125.5 6t156.5 19l11 -17q-14 -27 -39 -57.5t-49 -48.5 l-109 6q57 -68 57 -160q0 -150 -116 -237q-106 -80 -258 -80l-54 2q-29 -12 -50 -33.5t-21 -44.5q0 -31 27.5 -47t88.5 -16l191 2q119 0 192 -41q111 -61 111 -207q0 -158 -150.5 -280t-355.5 -122q-178 0 -282 84q-90 74 -91 172zM260 -184q0 -92 71.5 -151.5t186.5 -59.5 q131 0 199 69q53 55 53 136q0 61 -29.5 100t-73.5 52t-92.5 17.5t-99.5 4.5q-53 0 -93 -11.5t-63.5 -33t-41 -52t-17.5 -71.5zM303 621q0 -113 47 -184.5t125 -71.5q57 0 99 55t42 168q0 102 -45 177t-122 75q-59 0 -102.5 -58.5t-43.5 -160.5z" />
<glyph unicode="h" horiz-adv-x="1105" d="M27 0v57q94 10 115.5 31t21.5 107v1007q0 92 -18.5 110.5t-114.5 18.5v53q43 6 125 22.5t219 47.5v-674q61 57 127 92q78 41 149 41q139 0 215 -79.5t76 -221.5v-417q0 -86 18.5 -106.5t102.5 -31.5v-57h-449v57q80 10 98.5 31t18.5 107v368q0 213 -180 213 q-45 0 -94 -19.5t-82 -54.5v-507q0 -84 18.5 -105.5t91.5 -32.5v-57h-458z" />
<glyph unicode="i" horiz-adv-x="563" d="M49 0v57q96 8 117.5 30t21.5 108v456q0 94 -17 112.5t-114 29.5v47q78 12 173 33.5t169 44.5v-723q0 -86 21.5 -106.5t120.5 -31.5v-57h-492zM156 1262q0 57 39 96t92 39q55 0 94 -37t39 -98q0 -55 -39 -92t-94 -37q-53 0 -92 36.5t-39 92.5z" />
<glyph unicode="j" horiz-adv-x="544" d="M-51 -410q0 47 37 52q115 12 143 57q16 23 26.5 52.5t19.5 101t14.5 178t5.5 217.5v403q0 94 -17.5 112.5t-114.5 29.5v47q78 12 173.5 33.5t169.5 44.5v-674q0 -109 -11.5 -178.5t-42.5 -151.5q-49 -129 -157 -260q-84 -100 -138 -133q-25 -16 -49 -17q-23 0 -41 30 t-18 56zM156 1262q0 57 39 96t96 39q55 0 92 -37t37 -98q0 -55 -37 -92t-92 -37t-95 37.5t-40 91.5z" />
<glyph unicode="k" horiz-adv-x="1011" d="M20 0v57q104 8 127 30t23 108v1003q0 88 -18.5 105.5t-118.5 27.5v53q76 10 168 29q24 4 180 41v-962q39 8 68.5 27.5t49 41t70.5 94.5q59 86 74.5 109.5t15.5 34.5q0 12 -26 18l-47 6v58l403 20v-57l-74 -17q-55 -12 -86.5 -30.5t-83.5 -69.5q-39 -39 -80.5 -88 t-78.5 -94q35 -55 147 -199q104 -131 166 -201q31 -35 59.5 -54t51.5 -23l43 -11v-57h-299l-297 389q-10 14 -25.5 27.5t-28.5 13.5l-22 -4v-231q0 -84 22.5 -105.5t120.5 -32.5v-57h-504z" />
<glyph unicode="l" horiz-adv-x="538" d="M25 0v57q94 8 116.5 31t22.5 107v1003q0 88 -18.5 105.5t-118.5 27.5v53q78 10 166 29q12 2 182 41v-1259q0 -86 20.5 -107.5t120.5 -30.5v-57h-491z" />
<glyph unicode="m" horiz-adv-x="1681" d="M47 0v57q100 10 120.5 30t20.5 108v456q0 94 -17 112.5t-114 29.5v47q78 12 173.5 33.5t168.5 44.5v-150l119 80q51 33 94 49t84 16q86 0 149.5 -41t92.5 -112l139 92q53 33 90 47t86 14q131 0 198 -74.5t67 -197.5v-446q0 -86 20.5 -107.5t106.5 -30.5v-57h-459v57 q86 10 103.5 29.5t17.5 108.5v387q0 190 -160 190q-47 0 -93 -19.5t-100 -62.5l4 -45v-450q0 -88 17.5 -107.5t99.5 -30.5v-57h-450v57q86 10 104.5 29.5t18.5 108.5v387q0 190 -158 190q-96 0 -191 -82v-495q0 -86 17.5 -107.5t93.5 -30.5v-57h-463z" />
<glyph unicode="n" horiz-adv-x="1126" d="M43 0v57q100 10 122.5 29.5t22.5 103.5v461q0 94 -17 112.5t-114 29.5v47q78 12 173 33.5t169 44.5v-146l119 76q53 35 93 50t87 15q123 0 194 -74.5t71 -195.5v-453q0 -84 18 -103t104 -30v-57h-458v57q88 10 106.5 28.5t18.5 104.5v396q0 190 -166 190 q-45 0 -92.5 -21.5t-94.5 -62.5v-502q0 -84 17.5 -103t97.5 -30v-57h-471z" />
<glyph unicode="o" horiz-adv-x="1062" d="M225 793q136 120 316 120q197 0 323.5 -133t126.5 -319q0 -225 -145 -363q-131 -123 -309 -123q-219 0 -349 142q-116 126 -116 306q0 232 153 370zM315 492q0 -199 64.5 -320t177.5 -121q80 0 129 76q61 94 62 295q0 195 -60.5 305.5t-175.5 110.5q-78 0 -137.5 -94.5 t-59.5 -251.5z" />
<glyph unicode="p" horiz-adv-x="1091" d="M33 -401q96 10 117.5 29.5t21.5 103.5v934q0 84 -18.5 100t-120.5 27v47q94 18 198.5 50t151.5 44v-143l205 110q31 12 82 12q164 0 262 -122q88 -111 88 -263q0 -219 -146 -368q-133 -139 -350 -185q-43 0 -78.5 9.5t-62.5 23.5v-276q0 -84 28.5 -108.5t147.5 -24.5v-58 h-526v58zM383 150q41 -35 86 -53.5t102 -18.5q86 0 150 74q80 94 80 274q0 178 -76 268q-66 78 -176 78q-43 0 -83 -15t-83 -46v-561z" />
<glyph unicode="q" horiz-adv-x="1060" d="M72 410q0 215 160.5 359t418.5 144q49 -8 82 -15t45 -13q41 -12 60 -13q14 0 92 25l4 -8q0 -18 -2 -94t-2 -121v-942q0 -86 18.5 -104.5t114.5 -28.5v-58h-516v58q119 0 145.5 22.5t26.5 110.5v315l-197 -72q-219 0 -344 144q-106 123 -106 291zM307 475q0 -180 94 -287 q86 -98 209 -98q20 0 52 8.5t57 18.5v643q-33 33 -81 49t-95 16q-92 0 -160 -86q-76 -98 -76 -264z" />
<glyph unicode="r" horiz-adv-x="778" d="M55 0v57q90 8 111.5 31t21.5 107v456q0 94 -17 112.5t-114 29.5v47q78 12 173 33.5t169 44.5v-207q72 100 101 131q72 76 137 76q53 0 90 -37t37 -82q0 -37 -24.5 -77t-59.5 -52q-8 -4 -25 -4q-23 0 -34 12q-45 45 -95 45q-31 0 -62.5 -25.5t-64.5 -89.5v-413 q0 -88 27 -113t135 -25v-57h-506z" />
<glyph unicode="s" horiz-adv-x="759" d="M72 297l51 4q27 -96 98.5 -172t153.5 -76q57 0 98 37t41 96q0 53 -36 95.5t-120 76.5q-109 43 -168 97q-86 76 -86 176q0 117 87.5 199.5t238.5 82.5q47 0 99.5 -10t88.5 -26q8 -18 23.5 -83t26.5 -124l-58 -17q-45 96 -98 139.5t-113 43.5q-53 0 -85.5 -35t-32.5 -86 q0 -47 45 -88t114 -68q127 -47 193 -110q76 -74 76 -181q0 -141 -115 -221q-102 -72 -244 -72q-78 0 -146.5 25t-103.5 57q-8 20 -18 100.5t-10 139.5z" />
<glyph unicode="t" horiz-adv-x="657" d="M23 823l65 66h86v123l182 157l29 -16v-264h211q14 -14 14 -41q0 -37 -26 -53h-199v-506q0 -106 43 -154q29 -33 74 -33q25 0 58.5 8.5t66.5 26.5l24 -51l-180 -90q-39 -20 -68 -21q-229 0 -229 244v576h-139z" />
<glyph unicode="u" horiz-adv-x="1120" d="M61 817v49q51 0 148.5 12.5t183.5 24.5v-588q0 -104 49 -155q41 -41 109 -41q98 0 194 84v508q0 55 -14 70.5t-67 25.5l-58 10v49q59 0 161.5 12.5t188.5 24.5v-696q0 -63 12.5 -82t55.5 -19h78v-57q-70 -8 -129 -20q-14 -2 -211 -54l-17 17v133q-41 -31 -61 -45 q-33 -25 -66 -45q-53 -33 -88.5 -46.5t-80.5 -13.5q-125 0 -196 73t-71 204v459q0 53 -13 70.5t-52 23.5z" />
<glyph unicode="v" horiz-adv-x="962" d="M-16 831v58h462v-58l-69 -10q-27 -6 -27 -26q0 -12 15 -56q45 -121 94 -249t86 -214q35 84 80 210t84 241q14 37 14 61q0 25 -35 31l-72 12v58h363v-58q-78 -10 -104.5 -28.5t-58.5 -89t-90 -206.5t-99 -241q-74 -184 -111 -282h-74l-292 718q-33 80 -57.5 100.5 t-108.5 28.5z" />
<glyph unicode="w" horiz-adv-x="1370" d="M-10 831v58h461v-58l-78 -16q-37 -8 -37 -35q0 -4 8 -37l148 -456l227 590h72l237 -590q33 78 88 268q47 162 53.5 189.5t6.5 33.5q0 31 -46 39l-77 14v58h362v-58q-74 -12 -95.5 -32.5t-53.5 -106.5q-123 -317 -250 -708h-72l-250 594q-66 -166 -114 -291 q-98 -248 -117 -303h-78l-248 727q-25 76 -48 93t-99 27z" />
<glyph unicode="x" horiz-adv-x="970" d="M2 0v57q96 14 127 29q47 23 107 100l170 226l-191 295q-49 76 -80 96t-112 28v58h452v-58l-53 -8q-29 -2 -29 -22q0 -18 17 -41l118 -178q63 90 109 163q2 4 14.5 27t12.5 33q0 18 -25 20l-53 6v58h379v-58q-104 -10 -140.5 -26.5t-99.5 -93.5q-29 -37 -59.5 -76 t-92.5 -123l207 -313q57 -86 94 -108.5t123 -33.5v-57h-485v57l59 9q31 4 31 26q0 16 -18 45l-133 203q-76 -109 -84 -123q-31 -51 -45 -76q-23 -39 -23 -53t29 -20l59 -11v-57h-385z" />
<glyph unicode="y" horiz-adv-x="962" d="M-12 831v58h467v-58l-62 -10q-39 -6 -39 -33q0 -14 15 -53l172 -456q27 61 94 237q16 45 84 223q14 35 14 54q0 12 -9 18t-34 10l-74 10v58h375v-58q-88 -12 -110.5 -30.5t-69.5 -113.5t-130 -284.5t-120 -279.5q-98 -229 -147 -361q-39 -100 -72 -204 q-10 -31 -26.5 -42.5t-39.5 -11.5q-43 0 -78.5 34t-35.5 69q0 39 51 74.5t87 74.5t62 99l52 122q4 8 4 25q0 18 -10 45q-53 152 -140.5 371t-109.5 276q-35 88 -60.5 107.5t-109.5 29.5z" />
<glyph unicode="z" horiz-adv-x="874" d="M53 29l498 782h-164q-102 0 -141 -23.5t-80 -105.5l-33 -64l-55 17q12 43 33.5 139t33.5 160h41q8 -25 33 -35t78 -10h502l16 -25q-25 -39 -141 -225q-104 -166 -205.5 -331t-140.5 -230h178q117 0 172 26.5t106 112.5l35 59l53 -24l-92 -252h-710z" />
<glyph unicode="{" horiz-adv-x="737" d="M152 528v54q115 12 155 77q25 39 25 107q0 45 -10.5 156.5t-12.5 155.5t-2 91v21q0 156 103 219q73 45 196 45v-53q-100 -10 -137 -70q-27 -41 -27 -125q0 -27 6.5 -92t6.5 -96q0 -29 12 -111t12 -110q0 -88 -41 -152.5t-123 -83.5v-8q80 0 125 -76q39 -66 39 -164 q0 -27 -12 -108.5t-12 -112.5q0 -45 -4.5 -87t-8.5 -101q0 -106 45 -150q39 -37 119 -45v-53q-125 0 -194 43q-104 63 -105 221v123q8 74 12 121q12 133 13 180q0 98 -45 141t-135 43z" />
<glyph unicode="|" horiz-adv-x="520" d="M190 -512v2048h140v-2048h-140z" />
<glyph unicode="}" horiz-adv-x="737" d="M131 -291q100 10 137 70q27 41 27 125q0 45 -4 87t-8 101q0 31 -12.5 113t-12.5 108q0 94 42 167t122 73v8q-82 18 -123 83t-41 153q0 29 12.5 110.5t12.5 110.5q0 31 6 96.5t6 91.5q0 106 -42 146.5t-122 48.5v53q125 0 195 -43q104 -63 104 -221v-123q-8 -72 -12 -117 q-12 -139 -12 -184q0 -70 22 -107q41 -66 158 -77v-54q-88 0 -134 -44t-46 -140q0 -47 12 -180q6 -70 9 -131.5t3 -112.5q0 -156 -102 -219q-74 -45 -197 -45v53z" />
<glyph unicode="~" horiz-adv-x="1286" d="M127 412q78 125 174 178q68 37 143 37q57 0 103.5 -16.5t134.5 -61.5q59 -31 106.5 -47.5t90.5 -16.5q115 0 213 162l69 -72q-51 -98 -132 -158.5t-165 -60.5q-72 0 -149 33q-8 4 -121 62q-53 29 -93 41t-83 12q-117 0 -219 -166z" />
<glyph horiz-adv-x="1605" d="M45 1008q0 76 6 149q18 221 19 225h34q25 -35 44.5 -43t64.5 -8h854q39 0 57.5 9.5t46.5 41.5h35q0 -45 6 -118q16 -199 17 -250l-64 -6q-29 147 -73 194q-41 47 -224 47h-129v-528q86 27 125 37q104 29 150 28q254 0 395 -135q133 -127 133 -338q0 -248 -176 -419 q-160 -156 -448 -232l-23 55q162 59 262 181q133 162 133 403q0 193 -86 294t-260 101q-59 0 -109.5 -11t-95.5 -32v-348q0 -168 30 -208t161 -40v-57h-617v57q133 0 165 40t32 208v944h-68q-129 0 -181 -13t-79 -46q-18 -23 -36.5 -67t-36.5 -115h-64z" />
<glyph horiz-adv-x="1050" d="M74 0v57q117 0 145.5 41t28.5 207v721q0 168 -26.5 208t-143.5 40v57h919l23 -309l-64 -6q-29 137 -74.5 187t-224.5 50h-98q-59 0 -70.5 -9t-11.5 -66v-873q0 -168 32 -208t173 -40v-57h-608zM446 1438l336 209q25 14 41 14q23 0 47 -33l21 -26q16 -18 16 -37 q0 -27 -41 -37l-397 -131z" />
<glyph horiz-adv-x="1359" d="M72 0v57q119 0 147.5 41t28.5 207v721q0 168 -27.5 208t-148.5 40v57h579v-57q-117 0 -145.5 -41t-28.5 -207v-281q100 0 151.5 15.5t102.5 62.5t109 166q20 43 80 176q45 106 98 151.5t125 45.5q115 0 114 -76q0 -37 -21.5 -56.5t-53.5 -19.5h-54q-63 0 -101 -51 t-132 -241q-41 -82 -102 -136q-27 -25 -84 -57q80 -31 140 -79t105 -130q6 -12 64 -127q37 -72 88 -172q45 -86 92 -118.5t121 -41.5v-57h-209q-94 0 -147.5 46t-98.5 142l-129 291q-53 123 -119 166q-49 33 -139 33v-373q0 -168 27.5 -208t146.5 -40v-57h-579zM639 1438 l336 209q25 14 41 14q23 0 47 -33l20 -26q16 -18 17 -37q0 -27 -41 -37l-397 -131z" />
<glyph horiz-adv-x="1665" d="M45 1006q0 72 12.5 200.5t12.5 175.5h34q25 -35 44.5 -43t64.5 -8h862q39 0 57.5 9.5t49.5 41.5h32q0 -43 7 -118q16 -201 16 -252l-63 -6q-29 147 -75 195t-222 48h-136v-526q195 72 318 72q121 0 205 -33q63 -25 112 -72q68 -70 68 -237v-191q0 -139 25.5 -172 t140.5 -33v-57h-543v57q102 10 124.5 40t22.5 165v193q0 109 -36 159q-59 82 -217 82q-61 0 -115.5 -9t-104.5 -28v-354q0 -168 31 -208t168 -40v-57h-623v57q133 0 164 40t31 208v944h-70q-123 0 -178 -14t-82 -47q-18 -23 -36.5 -67t-36.5 -115h-64z" />
<glyph horiz-adv-x="1554" d="M63 0v57q125 0 155 40t30 208v721q0 166 -29 207t-151 41v57h587v-57q-121 0 -149.5 -41t-28.5 -207v-831q0 -82 21.5 -99.5t122.5 -17.5h311q104 0 125.5 16.5t21.5 100.5v831q0 168 -27.5 208t-150.5 40v57h586v-57q-121 0 -149.5 -41t-28.5 -207v-721 q0 -166 28.5 -207t151.5 -41v-57h-471q-88 0 -120 -25.5t-45 -76t-22.5 -119t-17.5 -158.5h-70q-6 59 -10 117q-10 90 -27.5 149.5t-43.5 81.5q-39 31 -125 31h-474z" />
<glyph horiz-adv-x="1073" d="M41 0v57q98 10 119.5 31t21.5 107v825h-139v84h139v94q0 92 -20.5 112.5t-120.5 20.5v51q123 20 218 42t134 30v-350h436v-84h-436v-242l123 51q33 12 57.5 19.5t53.5 7.5q182 0 286 -143q96 -131 97 -328q0 -254 -152 -465q-127 -178 -358 -323l-43 51 q154 123 232.5 297t78.5 422q0 195 -76 290q-66 84 -174 84q-68 0 -125 -32v-514q0 -86 21.5 -106.5t120.5 -31.5v-57h-494z" />
<glyph horiz-adv-x="1077" d="M47 0v57q102 10 125 29.5t23 106.5v503q0 86 -20.5 105.5t-121.5 29.5v58h486v-58q-92 -10 -112.5 -29.5t-20.5 -105.5v-194q78 0 149 59q31 27 82 94q41 53 76 110.5t71 90.5q59 53 129 53q39 0 65 -16t26 -49q0 -31 -18.5 -49.5t-59.5 -18.5h-43q-45 0 -80 -23.5 t-107 -127.5q-23 -35 -51.5 -67t-52.5 -48q76 -37 88 -47q29 -23 55 -57l121 -195q55 -90 89 -122t91 -32v-57h-147q-80 0 -119 16q-55 25 -96 95q-33 57 -70 131q-27 53 -53.5 108.5t-61 74.5t-83.5 19v-251q0 -86 20 -105.5t119 -30.5v-57h-498zM498 993l217 314 q20 31 45 30q8 0 41 -12l37 -20q31 -18 30 -37q1 -24 -34 -49l-289 -250z" />
<glyph horiz-adv-x="1122" d="M35 0v57q100 10 121.5 29.5t21.5 108.5v825h-139v84h139v94q0 90 -18.5 107.5t-118.5 27.5v49q151 27 348 72v-350h434v-84h-434v-244q59 61 127 96q78 41 158 41q135 0 211 -81.5t76 -221.5v-415q0 -88 19 -107.5t110 -30.5v-57h-461v57q84 8 103.5 30t19.5 108v370 q0 211 -179 211q-111 0 -184 -80v-501q0 -88 17.5 -107.5t97.5 -30.5v-57h-469z" />
<glyph unicode="&#xa1;" horiz-adv-x="1368" d="M39 1274v57h524v-57l-61 -10q-47 -10 -47 -41q0 -23 22 -68l287 -590q27 63 82 193q123 291 145 362q23 61 23 90q0 47 -74 58l-57 6v57h442v-57q-109 -16 -143.5 -45t-96.5 -156q-6 -12 -110.5 -246.5t-147.5 -332.5q-68 -154 -110 -248q-78 -170 -172 -244 q-72 -57 -152 -57q-59 0 -102 24q-53 31 -62 82q-4 10 -4 31q0 49 37 72q18 10 45 10q31 0 66 -25q51 -43 110 -43q57 0 102.5 66.5t45.5 126.5q0 27 -7.5 55.5t-27.5 71.5l-356 731q-37 74 -70 93.5t-131 33.5zM434 1550q0 29 19.5 52.5t52.5 23.5q43 0 65 -31 q16 -23 17 -53q8 -86 129 -86q127 0 127 86q4 31 18 51q23 33 64 33q33 0 52 -23.5t19 -52.5q0 -76 -77.5 -121t-202.5 -45q-127 0 -205 44.5t-78 121.5z" />
<glyph unicode="&#xa2;" horiz-adv-x="940" d="M-12 834v55h471l-2 -55l-66 -9q-35 -6 -35 -34q0 -12 6.5 -31t8.5 -25l182 -473q25 55 92 248q57 164 80 231q12 37 12 52q0 25 -41 30l-78 11v55h377v-55q-82 -12 -104.5 -31t-67.5 -111q-80 -164 -243 -575q-90 -217 -123 -299q-55 -133 -88 -191q-43 -80 -86 -108 q-31 -20 -76 -21q-41 0 -78 33t-37 76q0 27 11.5 43t39.5 20q94 18 147.5 61.5t90.5 127.5q14 31 27.5 63.5t17.5 49t4 34.5t-8 41q-78 207 -143 373q-2 6 -113 272q-39 90 -66.5 111.5t-111.5 30.5zM270 1139q0 37 21.5 63.5t62.5 26.5q31 0 46.5 -17.5t15.5 -46.5 q0 -14 -2 -20l-11 -41q-10 -57 109 -57t109 57l-11 41q-2 6 -2 20q0 27 16.5 45.5t47.5 18.5q39 0 60.5 -25.5t21.5 -64.5q0 -68 -63.5 -112t-178.5 -44q-113 0 -177.5 44t-64.5 112z" />
<glyph unicode="&#xa3;" horiz-adv-x="702" d="M35 -231q96 45 149 114q45 59 66 150q14 70 19 148.5t5 207.5v635q0 168 -29.5 209t-156.5 41v57h578v-57q-111 -10 -136.5 -47t-25.5 -203v-662q0 -199 -31 -301q-43 -141 -168 -233q-51 -39 -112.5 -68.5t-133.5 -48.5z" />
<glyph unicode="&#xa4;" d="M49 295l107 98q-94 106 -95 275q0 164 95 270l-107 98l119 111l90 -111q51 39 111.5 58.5t130.5 19.5q63 0 123.5 -18.5t113.5 -59.5l90 111l119 -111l-102 -98q90 -109 90 -270q0 -166 -90 -275l102 -98l-119 -111l-90 111q-102 -78 -237 -78q-68 0 -128.5 18.5 t-113.5 59.5l-90 -111zM229 668q0 -147 78 -243.5t193 -96.5t190.5 96t75.5 244q0 143 -75.5 239.5t-190.5 96.5t-193 -95.5t-78 -240.5z" />
<glyph unicode="&#xa5;" horiz-adv-x="1030" d="M74 0v57q117 0 145.5 41t28.5 207v721q0 168 -26.5 208t-143.5 40v57h581q180 0 222.5 46t72.5 177l64 -6l-23 -295h-436q-59 0 -70.5 -9t-11.5 -66v-873q0 -168 32 -208t173 -40v-57h-608z" />
<glyph unicode="&#xa6;" horiz-adv-x="520" d="M190 -358v716h140v-716h-140zM190 666v716h140v-716h-140z" />
<glyph unicode="&#xa7;" horiz-adv-x="1032" d="M82 725q0 119 61 244q49 102 135.5 199.5t149.5 140.5q76 52 178 75q41 0 81 -15t69.5 -37.5t29.5 -51.5q0 -25 -9 -44t-29 -38q-12 -8 -23 -8q-12 0 -26.5 10t-30.5 23q-68 43 -136 43q-70 0 -109.5 -44t-39.5 -87q0 -49 19.5 -87t68.5 -77t116.5 -84t133.5 -88 q102 -72 156 -146q74 -100 73 -223q0 -113 -76 -258q-57 -109 -151 -227q-137 -172 -301 -219q-27 0 -78 11t-78.5 30.5t-38 32t-10.5 28.5q0 20 19.5 50t35 38t23.5 8q4 0 24 -10q25 -18 52 -29q51 -20 108 -20q61 0 107 35q55 43 55 116q0 70 -34 121t-124 125l-237 180 q-80 66 -117 123q-47 74 -47 160zM205 844q0 -80 38 -143.5t113 -120.5l148 -111q74 -53 135 -113q53 -53 70.5 -81.5t29 -68.5t11.5 -87l4 -4q78 109 77 217q0 76 -38 143q-49 84 -162 168q-90 66 -142 102q-94 70 -114 91q-35 33 -58 69q-33 55 -32 113q0 16 2 26l-4 5 q-37 -47 -57.5 -97.5t-20.5 -107.5z" />
<glyph unicode="&#xa8;" horiz-adv-x="1146" d="M55 0v57q131 0 162 41t31 209v717q0 168 -27.5 209t-144.5 41v57h925l25 -311l-61 -4q-29 139 -76 186t-227 47h-103q-59 0 -70.5 -9t-11.5 -64v-435h176q129 0 157 25t44 145h66v-434h-66q-16 123 -43 146.5t-158 23.5h-176v-336q0 -94 9.5 -138t35 -62.5t71.5 -23.5 t126 -5q88 0 148.5 11t90.5 48q51 57 105 207l61 -12q-6 -59 -29.5 -169t-39.5 -167h-1000zM297 1505q0 45 27.5 75t72.5 30q43 0 72 -31t29 -74t-29 -73.5t-72 -30.5q-45 0 -72.5 29.5t-27.5 74.5zM690 1505q0 45 27.5 75t73.5 30q43 0 71.5 -31t28.5 -74t-28.5 -73.5 t-71.5 -30.5q-45 0 -73 29.5t-28 74.5z" />
<glyph unicode="&#xa9;" horiz-adv-x="1417" d="M92 635q0 262 177.5 445.5t439.5 183.5t439 -181.5t177 -447.5q0 -260 -178 -442.5t-438 -182.5q-262 0 -439.5 181.5t-177.5 443.5zM195 637q0 -233 146 -392t370 -159q223 0 367.5 158.5t144.5 392.5q0 233 -144.5 392t-367.5 159t-369.5 -159t-146.5 -392zM360 631 q0 166 116 265t280 99q76 0 127 -10t100 -27l23 -188l-43 -8q-31 92 -76 131q-51 45 -135 45q-113 0 -176.5 -82t-63.5 -211q0 -137 69.5 -224t174.5 -87q82 0 137 46t90 134l45 -6q-25 -96 -49 -191q-49 -16 -108.5 -28.5t-116.5 -12.5q-188 0 -297 113q-96 98 -97 242z " />
<glyph unicode="&#xaa;" horiz-adv-x="1343" d="M84 647q0 309 215 512t543 203q117 0 235.5 -26.5t147.5 -32.5q0 -6 13.5 -112t23.5 -210l-64 -8q-45 168 -143 241q-88 66 -230 66q-229 0 -362 -160q-123 -147 -123 -379l674 21v-135l-676 20q0 -268 131 -432t332 -164q129 0 213 62q74 53 112.5 154.5t100.5 101.5 q70 0 69 -84q0 -43 -32.5 -94.5t-83.5 -94.5q-68 -55 -175.5 -91t-218.5 -36q-340 0 -532 215q-170 188 -170 463z" />
<glyph unicode="&#xab;" horiz-adv-x="905" d="M92 463q84 96 168 199q94 115 160 198l41 -33l-189 -364l189 -361l-41 -36q-86 111 -158 198q-27 31 -170 199zM444 463q84 96 168 199q94 115 160 198l41 -33l-192 -364l192 -361l-41 -36q-86 111 -158 198q-27 31 -170 199z" />
<glyph unicode="&#xac;" horiz-adv-x="1263" d="M113 717v104h1061v-600h-123v496h-938z" />
<glyph unicode="&#xad;" horiz-adv-x="686" d="M92 393v139h502v-139h-502z" />
<glyph unicode="&#xae;" horiz-adv-x="1097" d="M82 891q0 201 134 337t333 136q197 0 332 -135t135 -338q0 -199 -134 -335t-333 -136q-197 0 -332 135t-135 336zM168 893q0 -168 108.5 -287t272.5 -119q160 0 270.5 119t110.5 287t-109.5 285.5t-271.5 117.5t-271.5 -117.5t-109.5 -285.5zM315 629v37q47 4 57.5 14 t10.5 57v307q0 47 -10.5 57.5t-57.5 14.5v37h240q106 0 154 -43q37 -35 36 -98q0 -43 -31.5 -79t-80.5 -54l67 -113q16 -29 30.5 -47.5t27.5 -32.5l37 -29l8 -4l-6 -30l-31 2q-102 0 -148 73l-71 131q-14 25 -37 25h-25v-117q0 -47 10.5 -57t59.5 -14v-37h-240zM485 895h39 q39 0 61.5 16.5t34 45t11.5 47.5q0 53 -32 77.5t-69 24.5t-41 -8.5t-4 -26.5v-176z" />
<glyph unicode="&#xaf;" horiz-adv-x="716" d="M66 1505q0 45 27.5 75t72.5 30q43 0 71.5 -31t28.5 -74t-28.5 -73.5t-71.5 -30.5q-45 0 -72.5 29.5t-27.5 74.5zM72 0v57q119 0 147.5 41t28.5 209v717q0 168 -27.5 209t-148.5 41v57h577v-57q-115 0 -143.5 -42t-28.5 -208v-717q0 -168 27.5 -209t144.5 -41v-57h-577z M459 1505q0 45 27.5 75t72.5 30q43 0 71.5 -31t28.5 -74t-28.5 -73.5t-71.5 -30.5q-45 0 -72.5 29.5t-27.5 74.5z" />
<glyph unicode="&#xb0;" horiz-adv-x="716" d="M55 1065q0 131 89 214t214 83t215.5 -84t90.5 -213q0 -135 -88.5 -217t-217.5 -82q-127 0 -215 82t-88 217zM188 1065q0 -90 49.5 -147.5t122.5 -57.5q74 0 122 56.5t48 148.5q0 90 -48 146.5t-122 56.5t-123 -55.5t-49 -147.5z" />
<glyph unicode="&#xb1;" horiz-adv-x="1286" d="M113 0v104h1058v-104h-1058zM113 690v105h469v432h123v-432h469v-105h-469v-454h-123v454h-469z" />
<glyph unicode="&#xb2;" horiz-adv-x="716" d="M72 0v57q119 0 147.5 41t28.5 209v717q0 168 -27.5 209t-148.5 41v57h577v-57q-115 0 -143.5 -42t-28.5 -208v-717q0 -168 27.5 -209t144.5 -41v-57h-577z" />
<glyph unicode="&#xb3;" horiz-adv-x="569" d="M49 0v57q96 8 117.5 30t21.5 108v456q0 94 -17 112.5t-114 29.5v47q78 12 173 33.5t169 44.5v-723q0 -86 21.5 -106.5t120.5 -31.5v-57h-492zM156 1262q0 57 39 96t92 39q55 0 94 -37t39 -98q0 -55 -39 -92t-94 -37q-53 0 -92 36.5t-39 92.5z" />
<glyph unicode="&#xb4;" horiz-adv-x="811" d="M51 831v58h490q43 0 79.5 9t55.5 34q35 47 65 155l60 -6l-21 -264h-313q-43 0 -51 -8t-8 -53v-563q0 -88 25.5 -112t131.5 -24v-57h-508v57q96 8 118 30t22 106v503q0 86 -21.5 105.5t-124.5 29.5z" />
<glyph unicode="&#xb5;" horiz-adv-x="1093" d="M127 -479q0 147 10 382.5t10 323.5v662h211v-563q0 -115 54 -170q45 -47 114 -47q74 0 119 34q66 51 66 172v574h211v-672q0 -63 14 -87t37 -24q41 0 65 62l56 -21q-20 -80 -69.5 -126t-133.5 -46q-70 0 -116 40t-56 118q-29 -80 -88.5 -119t-126.5 -39q-74 0 -115 23 q-53 29 -90 108l31 -540l-183 -62z" />
<glyph unicode="&#xb6;" horiz-adv-x="1024" d="M96 864q0 98 39 186.5t104.5 149t153.5 96t162 35.5h418l8 -24l-61 -54l-181 -20v-1008q0 -129 -31.5 -213t-109.5 -174q-43 -49 -111 -84q-55 -29 -79 -28q-49 0 -85 14t-67 39q-10 8 -16.5 23.5t-1.5 33.5q12 37 38 60q10 10 21 10q12 0 27 -10q70 -43 139 -43 q63 0 98 55q47 74 47 246v358l-114 -59q-18 -10 -45 -11q-113 0 -224 113q-129 131 -129 309z" />
<glyph unicode="&#xb7;" horiz-adv-x="495" d="M106 567q0 61 39 102.5t101 41.5q61 0 102 -41t41 -103q0 -66 -41 -106.5t-102 -40.5q-59 0 -99.5 40t-40.5 107z" />
<glyph unicode="&#xb8;" horiz-adv-x="876" d="M72 406q0 199 130 353t326 154q127 0 216.5 -89t89.5 -203q0 -57 -6.5 -69.5t-54.5 -21t-223 -19.5t-276 -11q0 -180 99 -279q86 -86 213 -86q55 0 104.5 19.5t110.5 66.5l28 -35q-59 -86 -139 -141q-102 -70 -188 -70q-197 0 -313.5 123t-116.5 308zM190 1141 q0 45 28 74.5t73 29.5q43 0 71.5 -30.5t28.5 -73.5t-28.5 -74t-71.5 -31q-45 0 -73 30t-28 75zM285 584l305 4q27 0 32 15t5 42q0 66 -45 127.5t-109 61.5q-68 0 -122 -68.5t-66 -181.5zM565 1141q0 45 28 74.5t73 29.5q43 0 71.5 -30.5t28.5 -73.5t-28.5 -74t-71.5 -31 q-45 0 -73 30t-28 75z" />
<glyph unicode="&#xb9;" horiz-adv-x="1804" d="M29 68q0 41 21.5 62.5t51.5 21.5q8 0 41 -11q12 -4 27 -4q49 0 74 84q35 123 35 455v297q0 84 -5.5 117.5t-25.5 66.5q-43 63 -174 64v57h348l487 -862l4 315q0 248 25 369q16 86 57 137q25 33 55.5 49.5t61.5 16.5q41 0 62.5 -24t21.5 -62q0 -20 -15.5 -33t-41.5 -25 q-66 -31 -100.5 -137.5t-34.5 -335.5v-700h-76l-557 995l-4 -395q0 -246 -17.5 -355.5t-60.5 -167.5q-63 -88 -156 -88q-43 0 -73.5 25t-30.5 68zM1122 659q0 164 103 256q88 80 207 80q135 0 221 -88t86 -223q0 -156 -97 -248q-86 -82 -206 -82q-145 0 -234 97 q-80 86 -80 208zM1171 176v84h531v-84h-531zM1286 711q0 -129 45 -209t117 -80q57 0 89 49t32 166q0 131 -41 212t-115 81q-55 0 -91 -59.5t-36 -159.5z" />
<glyph unicode="&#xba;" horiz-adv-x="944" d="M72 434q0 207 133 346.5t356 139.5q76 0 139.5 -13.5t128.5 -38.5l41 -223l-61 -16q-35 94 -74 139q-66 78 -164 78q-125 0 -191.5 -97.5t-66.5 -240.5l367 18l2 -110l-369 20q0 -143 49 -250q63 -135 183 -135q129 0 186 117q29 49 39 61q23 23 53 23q35 0 56.5 -23.5 t21.5 -54.5q0 -27 -11 -50.5t-44 -51.5q-111 -96 -295 -97q-201 0 -336 119q-143 127 -143 340z" />
<glyph unicode="&#xbb;" horiz-adv-x="905" d="M92 102l189 361l-189 364l41 33q86 -111 158 -198q27 -31 170 -199q-84 -96 -168 -199q-94 -114 -160 -198zM444 102l189 361l-189 364l41 33q86 -111 158 -198q27 -31 170 -199q-84 -96 -168 -199q-94 -114 -160 -198z" />
<glyph unicode="&#xbc;" horiz-adv-x="552" d="M-51 -410q0 47 37 52q115 12 143 57q16 23 26.5 52.5t19.5 101t14.5 178t5.5 217.5v403q0 94 -17.5 112.5t-114.5 29.5v47q78 12 173.5 33.5t169.5 44.5v-674q0 -109 -11.5 -178.5t-42.5 -151.5q-49 -129 -157 -260q-84 -100 -138 -133q-25 -16 -49 -17q-23 0 -41 30 t-18 56zM156 1262q0 57 39 96t96 39q55 0 92 -37t37 -98q0 -55 -37 -92t-92 -37t-95 37.5t-40 91.5z" />
<glyph unicode="&#xbd;" horiz-adv-x="997" d="M76 365l61 20q49 -125 117 -207q106 -127 246 -127q98 0 156.5 66.5t58.5 165.5q0 90 -48.5 153.5t-168.5 122.5l-66 33q-133 68 -203 139q-104 106 -104 240q0 168 117.5 279.5t318.5 111.5q47 0 95.5 -6t91.5 -23q23 -8 49 -15t37 -11q8 -78 20 -156q6 -37 20 -121 l-65 -12q-47 152 -119 211q-61 51 -153 51q-98 0 -153.5 -61.5t-55.5 -153.5q0 -154 239 -262l54 -25q139 -61 213 -143q94 -102 94 -250q0 -184 -130 -300t-337 -116q-55 0 -108.5 10.5t-96.5 24.5l-119 43q-10 35 -28.5 134.5t-32.5 183.5z" />
<glyph unicode="&#xbe;" horiz-adv-x="765" d="M72 297l51 4q27 -96 98.5 -172t153.5 -76q57 0 98 37t41 96q0 53 -36 95.5t-120 76.5q-109 43 -168 97q-86 76 -86 176q0 117 87.5 199.5t238.5 82.5q47 0 99.5 -10t88.5 -26q8 -18 23.5 -83t26.5 -124l-58 -17q-45 96 -98 139.5t-113 43.5q-53 0 -85.5 -35t-32.5 -86 q0 -47 45 -88t114 -68q127 -47 193 -110q76 -74 76 -181q0 -141 -115 -221q-102 -72 -244 -72q-78 0 -146.5 25t-103.5 57q-8 20 -18 100.5t-10 139.5z" />
<glyph unicode="&#xbf;" horiz-adv-x="569" d="M16 1262q0 45 28 74.5t73 29.5q43 0 71.5 -30.5t28.5 -73.5t-28.5 -74t-71.5 -31q-45 0 -73 30t-28 75zM49 0v57q96 8 117.5 30t21.5 108v456q0 94 -17 112.5t-114 29.5v47q78 12 173 33.5t169 44.5v-723q0 -86 21.5 -106.5t120.5 -31.5v-57h-492zM346 1262 q0 45 27.5 74.5t72.5 29.5q43 0 72 -30.5t29 -73.5t-29 -74t-72 -31q-45 0 -72.5 30t-27.5 75z" />
<glyph unicode="&#xc0;" horiz-adv-x="1411" d="M0 0v57q100 12 134 43t87 166l414 1065l82 25l141 -381l260 -709q51 -131 88 -164.5t129 -44.5v-57h-538v57l57 9q72 12 72 49q0 14 -15.5 61t-44 123t-67.5 172h-379q-14 -31 -30.5 -78t-61.5 -184q-18 -53 -19 -84q0 -53 88 -62l58 -6v-57h-455zM442 565h326l-160 451z " />
<glyph unicode="&#xc1;" horiz-adv-x="1222" d="M68 0v57q123 0 151.5 40t28.5 208v721q0 168 -26.5 208t-143.5 40v57h930l22 -309l-63 -6q-29 137 -75 187t-222 50h-115q-59 0 -70.5 -9t-11.5 -66v-406h221q219 0 340 -96t121 -258q0 -123 -47 -203t-133 -133q-74 -43 -176.5 -62.5t-231.5 -19.5h-499zM473 311 q0 -143 27.5 -187t120.5 -44q113 2 188 72q92 83 92 245q0 154 -84 227.5t-239 73.5h-105v-387z" />
<glyph unicode="&#xc2;" horiz-adv-x="1234" d="M72 0v57q119 0 147.5 41t28.5 209v717q0 166 -27.5 208t-136.5 42v57h565q125 0 189.5 -14t126.5 -53q115 -76 114 -234q0 -119 -100 -203q-84 -70 -191 -90q166 -23 263 -106q106 -92 106 -240q0 -106 -47 -180t-137 -129q-68 -41 -172.5 -61.5t-218.5 -20.5h-510z M473 311q0 -143 28.5 -186t127.5 -43q115 0 188 63q86 74 86 224q0 152 -97 229.5t-263 77.5h-70v-365zM473 750h82q135 0 211 63.5t76 190.5q0 129 -82 194q-70 55 -176 55q-74 0 -91.5 -8t-18.5 -42t-1 -52v-401z" />
<glyph unicode="&#xc3;" horiz-adv-x="1060" d="M74 0v57q117 0 145.5 41t28.5 207v721q0 168 -26.5 208t-143.5 40v57h919l23 -309l-64 -6q-29 137 -74.5 187t-224.5 50h-104q-59 0 -70.5 -9t-11.5 -66v-873q0 -168 32 -208t173 -40v-57h-602z" />
<glyph unicode="&#xc4;" horiz-adv-x="1380" d="M47 4q0 37 12.5 49.5t44.5 12.5h43q37 0 53.5 9t37.5 48q82 141 121.5 404.5t39.5 615.5q0 70 -18.5 89t-91.5 30l-88 12v57h1110v-57q-123 0 -152 -41t-29 -207v-778q0 -125 14.5 -153.5t76.5 -28.5h61q29 0 41 -12.5t12 -51.5v-367h-63l-43 183q-27 106 -73 144 t-144 38h-654q-111 0 -146.5 -40t-70.5 -189l-32 -136h-62v369zM373 111q0 -18 15 -25.5t40 -7.5h348q76 0 100.5 27.5t24.5 125.5v877q0 94 -4 119.5t-74 25.5h-219q-72 0 -86 -8t-14 -49q0 -408 -32 -646.5t-87 -387.5q-12 -37 -12 -51z" />
<glyph unicode="&#xc5;" horiz-adv-x="1146" d="M55 0v57q131 0 162 41t31 209v717q0 168 -27.5 209t-144.5 41v57h925l25 -311l-61 -4q-29 139 -76 186t-227 47h-103q-59 0 -70.5 -9t-11.5 -64v-435h176q129 0 157 25t44 145h66v-434h-66q-16 123 -43 146.5t-158 23.5h-176v-336q0 -94 9.5 -138t35 -62.5t71.5 -23.5 t126 -5q88 0 148.5 11t90.5 48q51 57 105 207l61 -12q-6 -59 -29.5 -169t-39.5 -167h-1000z" />
<glyph unicode="&#xc6;" horiz-adv-x="1982" d="M41 0v57q78 8 122 39t91 119q76 152 106 213q41 82 48 92q45 82 103 126t144 71q-74 45 -110 84q-47 51 -80 117q-76 160 -98 198q-55 94 -129 94h-60q-35 0 -55.5 17.5t-20.5 58.5q0 76 115 76q70 0 125 -47t103.5 -159t76.5 -171q59 -123 108.5 -168t99.5 -61.5 t147 -16.5v287q0 168 -28 208t-149 40v57h578v-57q-115 0 -143.5 -41t-28.5 -207v-287q96 0 148.5 16.5t101.5 62.5t106 165q49 109 80 178q43 106 97.5 153.5t125.5 47.5q115 0 115 -76q0 -37 -21.5 -56.5t-54.5 -19.5h-57q-63 0 -105 -55q-33 -45 -122 -237 q-43 -86 -105 -140q-39 -35 -86 -55q88 -35 137 -72q63 -47 109 -131q27 -45 67 -129q70 -145 87 -176q47 -88 91 -118.5t122 -39.5v-57h-209q-92 0 -145.5 46t-98.5 142l-129 291q-53 123 -119 164q-49 31 -135 31v-369q0 -168 27.5 -208t148.5 -40v-57h-582v57 q119 0 148 41t29 207v369q-88 0 -134 -29q-66 -43 -118 -166l-131 -291q-45 -100 -93 -139q-57 -49 -151 -49h-209z" />
<glyph unicode="&#xc7;" horiz-adv-x="1114" d="M72 211q0 39 26.5 69.5t65.5 30.5q57 0 78 -55q43 -117 118 -168q66 -43 154 -43q94 0 168 66q96 86 96 243q0 143 -69.5 235.5t-163.5 92.5q-23 0 -54.5 -6t-58.5 -10l-59 -7q-33 0 -55.5 20.5t-22.5 47.5t22.5 47.5t57.5 20.5l57 -7q33 -4 69 -10t46 -6q72 0 127 59 q63 68 63 181q0 131 -62.5 201.5t-162.5 70.5q-121 0 -201 -92q-66 -78 -102 -221l-64 6q10 43 22.5 163t14.5 148l144 41q35 12 115.5 22.5t115.5 10.5q188 0 299 -89.5t111 -228.5q4 -72 -31 -133q-27 -49 -76 -84q-88 -59 -194 -90q160 -27 249 -104q113 -96 113 -260 q0 -195 -164 -305q-147 -98 -360 -99q-102 0 -195.5 21.5t-152.5 66.5q-39 27 -61.5 70t-22.5 84z" />
<glyph unicode="&#xc8;" horiz-adv-x="1558" d="M61 1274v57h578v-57q-117 0 -145.5 -41t-28.5 -207v-676l592 750q35 47 35 76q0 53 -26 70.5t-108 27.5v57h533v-57q-123 0 -151.5 -39t-28.5 -201v-729q0 -168 27.5 -208t150.5 -40v-57h-584v57q125 0 156 41t31 207v694h-11l-592 -751q-18 -23 -21 -36t-3 -56 q0 -51 25.5 -68.5t107.5 -30.5v-57h-532v57q123 0 151.5 40t28.5 208v721q0 168 -29 208t-156 40z" />
<glyph unicode="&#xc9;" horiz-adv-x="1558" d="M61 1274v57h578v-57q-117 0 -145.5 -41t-28.5 -207v-676l592 750q35 47 35 76q0 53 -26 70.5t-108 27.5v57h533v-57q-123 0 -151.5 -39t-28.5 -201v-729q0 -168 27.5 -208t150.5 -40v-57h-584v57q125 0 156 41t31 207v694h-11l-592 -751q-18 -23 -21 -36t-3 -56 q0 -51 25.5 -68.5t107.5 -30.5v-57h-532v57q123 0 151.5 40t28.5 208v721q0 168 -29 208t-156 40zM500 1544q0 27 19.5 51.5t51.5 24.5q45 0 66 -31q12 -18 18 -53q0 -88 127 -88q129 0 129 88q6 45 26.5 64.5t57.5 19.5q33 0 52.5 -23.5t19.5 -52.5q0 -78 -80 -123 t-205 -45q-127 0 -204.5 44t-77.5 124z" />
<glyph unicode="&#xca;" horiz-adv-x="1359" d="M72 0v57q119 0 147.5 41t28.5 207v721q0 168 -27.5 208t-148.5 40v57h571v-57q-117 0 -145.5 -41t-28.5 -207v-281q104 0 157.5 16.5t104.5 62.5t109 165q20 43 80 176q45 106 98 151.5t125 45.5q115 0 114 -76q0 -37 -21.5 -56.5t-53.5 -19.5h-54q-63 0 -101 -51 t-132 -241q-41 -82 -102 -136q-27 -25 -84 -57q80 -31 140 -79t105 -130q6 -12 64 -127q37 -72 88 -172q45 -86 92 -118.5t121 -41.5v-57h-209q-94 0 -147.5 46t-98.5 142l-129 291q-55 125 -119 166q-51 33 -147 33v-373q0 -168 27.5 -208t146.5 -40v-57h-571z" />
<glyph unicode="&#xcb;" horiz-adv-x="1314" d="M0 -12v49q70 25 133 88q57 55 98 129q76 133 117 374.5t41 518.5q0 80 -31.5 103.5t-150.5 23.5v57h1036v-57q-119 0 -147.5 -41t-28.5 -207v-721q0 -168 27.5 -208t148.5 -40v-57h-581v57q119 0 147.5 41t28.5 207v805q0 106 -9.5 124.5t-68.5 18.5h-164 q-82 0 -97.5 -10t-15.5 -63q0 -457 -46 -718t-146 -396q-41 -55 -77 -77t-77 -22q-33 0 -45 2t-92 19z" />
<glyph unicode="&#xcc;" horiz-adv-x="1812" d="M43 0v57q78 0 112.5 23.5t45.5 83.5q20 129 22 137q14 115 15 242l22 422q0 211 -22.5 254t-153.5 55v57h377l452 -977l428 977h388v-57q-125 -12 -147.5 -45t-22.5 -205l20 -717q0 -168 25.5 -202.5t152.5 -47.5v-57h-571v57q119 12 141.5 46t22.5 204l-9 787h-8 l-465 -1069h-61l-449 1028h-8l-14 -531v-214t6 -151.5t43 -69.5t143 -30v-57h-485z" />
<glyph unicode="&#xcd;" horiz-adv-x="1572" d="M59 1274v57h586v-57q-115 0 -141.5 -41t-26.5 -209v-274h623v274q0 168 -28 209t-144 41v57h581v-57q-123 0 -151.5 -41t-28.5 -209v-717q0 -168 27.5 -209t148.5 -41v-57h-594v57q127 0 158 41t31 209v348h-623v-348q0 -168 27.5 -209t148.5 -41v-57h-585v57 q123 0 151.5 41t28.5 209v717q0 168 -30 209t-159 41z" />
<glyph unicode="&#xce;" horiz-adv-x="1529" d="M84 643q0 281 176 485q201 234 541 234q270 0 458.5 -188.5t188.5 -483.5q0 -322 -197.5 -521.5t-496.5 -199.5q-297 0 -483.5 194.5t-186.5 479.5zM350 709q0 -289 117 -467q125 -190 338 -191q168 0 268 137q109 150 109 426q0 315 -119 490.5t-326 175.5 q-168 0 -274 -150q-113 -158 -113 -421z" />
<glyph unicode="&#xcf;" horiz-adv-x="1558" d="M63 1274v57h1428v-57q-123 0 -151.5 -40t-28.5 -208v-721q0 -168 27.5 -208t150.5 -40v-57h-594v57q125 0 155.5 41t30.5 207v803q0 102 -15 123.5t-89 21.5h-397q-72 0 -87.5 -21.5t-15.5 -123.5v-803q0 -168 27.5 -208t150.5 -40v-57h-587v57q123 0 151.5 40t28.5 208 v721q0 168 -29 208t-156 40z" />
<glyph unicode="&#xd0;" horiz-adv-x="1171" d="M76 0v57q115 0 143.5 42t28.5 208v717q0 166 -27.5 208t-136.5 42v57h534q121 0 205 -19.5t149.5 -64.5t101.5 -114.5t36 -171.5q0 -182 -127 -297q-111 -100 -278 -121q-25 -2 -53.5 -3t-41.5 -1l-137 36v-268q0 -168 33 -209t172 -41v-57h-602zM473 655 q29 -10 58.5 -17t66.5 -7q92 0 162 61q100 88 100 266q0 152 -75.5 223.5t-211.5 71.5q-72 0 -86 -12t-14 -61v-525z" />
<glyph unicode="&#xd1;" horiz-adv-x="1351" d="M84 643q0 319 222 519t568 200q119 0 230 -21q111 -27 139 -32q12 -84 21.5 -174.5t15.5 -149.5l-57 -8q-47 168 -146 240q-88 63 -239 63q-238 0 -369 -178q-119 -160 -119 -406q0 -289 132 -467t356 -178q158 0 258 84q86 72 172 248l57 -12q-27 -104 -47 -176 q-31 -106 -55 -164q-90 -27 -206 -44.5t-179 -17.5q-373 0 -578 215q-176 186 -176 459z" />
<glyph unicode="&#xd2;" horiz-adv-x="1247" d="M47 1008q0 76 6 149q18 223 19 227h37q20 -35 40.5 -44t65.5 -9h844q39 0 54 9.5t44 43.5h33q0 -76 4 -136t20 -236l-61 -4q-14 80 -31.5 121.5t-44.5 68.5q-45 51 -227 51h-107v-942q0 -168 33 -209t172 -41v-57h-631v57q135 0 166 41t31 209v942h-70q-123 0 -178 -14 t-84 -47q-20 -23 -37.5 -65.5t-35.5 -114.5h-62z" />
<glyph unicode="&#xd3;" horiz-adv-x="1376" d="M41 1274v57h528v-57l-61 -10q-47 -10 -47 -41q0 -23 22 -68l287 -590q27 63 82 193q123 291 145 362q23 61 23 90q0 47 -74 58l-57 6v57h446v-57q-109 -16 -143.5 -45t-95.5 -156q-6 -12 -110.5 -246.5t-147.5 -332.5q-68 -154 -111 -248q-80 -172 -172 -244 q-74 -57 -156 -57q-61 0 -110 26.5t-58 79.5q-4 10 -4 31q0 49 37 72q18 10 45 10q31 0 66 -25q51 -43 110 -43q57 0 102.5 66.5t45.5 126.5q0 27 -7.5 55.5t-27.5 71.5l-356 731q-37 74 -70 93.5t-131 33.5z" />
<glyph unicode="&#xd4;" horiz-adv-x="1556" d="M80 678q0 242 205 373q164 104 377 104q-8 74 -43 96.5t-123 22.5v57h567v-57q-92 0 -126 -22.5t-42 -96.5q209 0 375 -104q209 -133 209 -375t-207 -373q-166 -104 -375 -104q0 -86 36 -114t130 -28v-57h-567v57q98 0 134 27t36 117q-215 0 -377 102q-209 131 -209 375z M332 678q0 -186 112 -303q96 -100 222 -111l2 41v721l-4 66q-125 -10 -220 -109q-113 -117 -112 -305zM891 305l2 -41q119 0 217 103q117 121 117 309q0 190 -113 309q-98 104 -221 105l-2 -64v-721z" />
<glyph unicode="&#xd5;" horiz-adv-x="1357" d="M20 0v57q94 10 137.5 26.5t84.5 68.5q115 139 348 499l-291 459q-61 98 -102 125t-144 39v57h565v-57l-65 -8q-66 -10 -66 -35q0 -12 17 -39q57 -92 112 -182q68 -109 111 -172q51 74 107 163q63 100 102 175q20 41 20 55q0 29 -61 35l-70 8v57h478v-57 q-111 -14 -146 -31.5t-105.5 -106.5t-152.5 -204q-72 -100 -117 -170l348 -541q66 -100 109 -126.5t150 -37.5v-57h-594v57l57 9q68 6 68 38q0 16 -15.5 45t-77.5 127q-119 193 -184 293q-63 -94 -147 -239q-45 -82 -90 -162q-23 -41 -23 -62q0 -41 59 -40l78 -9v-57h-500z " />
<glyph unicode="&#xd6;" horiz-adv-x="1581" d="M63 0v57q125 0 155 40t30 208v721q0 166 -29 207t-151 41v57h587v-57q-121 0 -149.5 -41t-28.5 -207v-803q0 -106 15.5 -125.5t99.5 -19.5h385q72 0 87 21.5t15 123.5v803q0 168 -28.5 208t-155.5 40v57h592v-57q-121 0 -149.5 -41t-28.5 -207v-752q0 -143 12 -174.5 t68 -31.5h69q53 0 53 -62v-356h-63l-45 182q-27 104 -70 136t-141 32h-1129z" />
<glyph unicode="&#xd7;" horiz-adv-x="1411" d="M43 1274v57h567v-57q-113 0 -141.5 -42t-28.5 -206v-82q0 -141 67.5 -215t213.5 -74q119 0 213 58v313q0 168 -27.5 208t-148.5 40v57h581v-57q-119 0 -147.5 -41t-28.5 -207v-721q0 -168 28 -208t148 -40v-57h-600v57q133 0 164 40t31 208v336l-182 -66 q-68 -25 -144 -24q-242 0 -338 131q-27 37 -43 91t-16 147v106q0 166 -26.5 207t-141.5 41z" />
<glyph unicode="&#xd8;" horiz-adv-x="2050" d="M63 0v57q125 0 155 40t30 208v721q0 166 -29 207t-151 41v57h563v-57q-100 -10 -127 -49t-27 -199v-803q0 -104 14.5 -124.5t88.5 -20.5h229q74 0 89 20.5t15 124.5v803q0 166 -24.5 202t-134.5 46v57h542v-57q-104 -10 -128.5 -48t-24.5 -200v-803q0 -104 14 -124.5 t88 -20.5h232q72 0 87 20.5t15 124.5v803q0 166 -26.5 207t-139.5 41v57h576v-57q-123 0 -152 -40t-29 -208v-721q0 -168 29 -208t156 -40v-57h-1930z" />
<glyph unicode="&#xd9;" horiz-adv-x="2076" d="M63 0v57q125 0 155 40t30 208v721q0 166 -29 207t-151 41v57h569v-57q-109 -10 -134.5 -47t-25.5 -201v-803q0 -104 14.5 -124.5t88.5 -20.5h227q74 0 89 20.5t15 124.5v803q0 166 -24.5 202t-134.5 46v57h548v-57q-109 -10 -134 -47t-25 -201v-803q0 -104 14 -124.5 t88 -20.5h230q72 0 87 20.5t15 124.5v803q0 166 -26.5 207t-139.5 41v57h576v-57q-123 0 -152 -40t-29 -208v-752q0 -145 12.5 -175.5t69.5 -30.5h66q55 0 55 -62v-356h-63l-46 182q-27 104 -69.5 136t-142.5 32h-1623z" />
<glyph unicode="&#xda;" horiz-adv-x="1574" d="M45 1022l23 309h923v-57q-123 0 -151.5 -40t-28.5 -208v-238h227q219 0 341 -97t122 -267q0 -127 -48 -207t-136 -133q-76 -45 -178.5 -64.5t-231.5 -19.5h-499v57q121 0 149.5 41t28.5 207v869q0 59 -10.5 69t-71.5 10h-98q-180 0 -224.5 -50t-72.5 -187zM811 287 q0 -127 30.5 -168t127.5 -41q117 0 188 67q90 84 90 261q0 162 -83 235.5t-238 73.5h-115v-428z" />
<glyph unicode="&#xdb;" horiz-adv-x="1802" d="M68 0v57q119 0 147.5 41t28.5 207v721q0 168 -28 208t-144 40v57h585v-57q-127 0 -157.5 -41t-30.5 -207v-238h219q217 0 339 -97t122 -267q0 -127 -48 -208t-136 -132q-76 -45 -177.5 -64.5t-230.5 -19.5h-489zM469 291q0 -129 29.5 -171t119.5 -42q115 4 187 72 q90 84 90 256q0 162 -83 235.5t-239 73.5h-104v-424zM1157 0v57q119 0 147.5 41t28.5 207v721q0 168 -27.5 208t-148.5 40v57h582v-57q-119 0 -147.5 -41t-28.5 -207v-721q0 -168 27.5 -208t148.5 -40v-57h-582z" />
<glyph unicode="&#xdc;" horiz-adv-x="1224" d="M68 0v57q123 0 151.5 40t28.5 208v721q0 168 -27.5 208t-148.5 40v57h594v-57q-131 0 -162 -40t-31 -208v-238h215q219 0 341 -97t122 -267q0 -127 -48 -208t-136 -132q-76 -45 -177.5 -64.5t-230.5 -19.5h-491zM473 287q0 -127 28.5 -168t116.5 -41q117 0 189 67 q92 86 92 261q0 162 -83 235.5t-238 73.5h-105v-428z" />
<glyph unicode="&#xdd;" horiz-adv-x="1333" d="M55 281q0 43 20.5 71.5t61.5 28.5q33 0 52.5 -17.5t33.5 -54.5q47 -125 136.5 -191.5t215.5 -66.5q182 0 304 163t122 437l-663 -20v127l659 -21q0 287 -141 428q-115 115 -293 115q-203 0 -299 -133q-16 -23 -86 -197l-63 4q6 63 18 167t21 161q33 6 147 37 q164 43 281 43q356 0 532 -223q137 -174 137 -418q0 -293 -131 -479q-104 -150 -284 -219q-137 -53 -279 -54q-125 0 -233.5 38t-171.5 97q-45 43 -71 87.5t-26 89.5z" />
<glyph unicode="&#xde;" horiz-adv-x="2121" d="M72 0v57q119 0 147.5 41t28.5 207v721q0 168 -27.5 208t-148.5 40v57h579v-57q-117 0 -145.5 -41t-28.5 -207v-283h250q31 256 197 426q188 193 483 193q260 0 445.5 -191.5t185.5 -484.5q0 -317 -191.5 -517t-476.5 -200t-469 194.5t-184 483.5l2 15h-242v-357 q0 -168 27.5 -208t146.5 -40v-57h-579zM971 707q0 -291 116.5 -473.5t321.5 -182.5q172 0 272.5 142.5t100.5 420.5q0 313 -116 489.5t-310 176.5q-180 0 -282.5 -157.5t-102.5 -415.5z" />
<glyph unicode="&#xdf;" horiz-adv-x="1331" d="M41 -2v59q55 8 76 17q35 14 63.5 49t89.5 143q47 84 72 127q61 113 113.5 163t105.5 65q-123 16 -217 94q-117 96 -117 248q0 166 113 262q125 106 369 106h553v-57q-117 0 -146 -41t-29 -207v-721q0 -168 28 -208t151 -40v-57h-580v57q119 0 147.5 41t28.5 207v285h-59 q-59 0 -94 -26.5t-74 -94.5t-76 -143.5t-76 -155.5q-53 -102 -113.5 -137t-168.5 -35h-160zM481 961q0 -150 88 -223.5t240 -73.5h53v520q0 47 -16.5 59t-83.5 12q-135 0 -208 -86t-73 -208z" />
<glyph unicode="&#xe0;" horiz-adv-x="921" d="M72 223q0 74 37.5 128.5t115.5 86.5q117 45 178 70q104 41 152 72v55q0 176 -147 176q-23 0 -44.5 -10t-35.5 -25q-45 -37 -70 -151q-10 -45 -65 -45q-35 0 -70 27.5t-35 62.5q0 45 62.5 92t138.5 82q106 51 205 69q111 0 176 -49q51 -39 71 -94q14 -39 15 -104v-439 q0 -59 15 -86.5t42 -27.5q20 0 34.5 5t47.5 19l20 -51l-210 -111q-63 0 -105 45q-31 35 -41 84q-84 -51 -166 -102q-49 -27 -71 -27q-111 0 -180.5 76t-69.5 172zM295 268q0 -74 39 -114.5t84 -40.5q61 -1 137 65v326l-162 -82q-98 -53 -98 -154z" />
<glyph unicode="&#xe1;" horiz-adv-x="1075" d="M72 502q0 170 42 299t128 237q63 74 125 127q49 43 102 76q88 57 233 100q49 14 86 29q61 23 97 51q20 16 28 17q8 0 9 -17q0 -57 -23 -112q-29 -72 -88 -105q-43 -23 -108.5 -42t-149.5 -34q-166 -33 -211 -108q-23 -39 -36 -97.5t-19 -138.5l4 -4q47 57 122.5 95 t155.5 38q199 0 320 -131q115 -125 115 -313q0 -236 -150 -371q-135 -123 -330 -123q-213 0 -332.5 147.5t-119.5 379.5zM311 514q0 -209 67.5 -336t178.5 -127q90 0 139 70q63 90 64 299q0 188 -62.5 301t-175.5 113q-86 0 -147 -74q-37 -43 -50.5 -89t-13.5 -157z" />
<glyph unicode="&#xe2;" horiz-adv-x="1044" d="M51 0v57q96 0 120 26t24 126v473q0 102 -19.5 127t-105.5 25v55h544q139 0 218 -48t79 -149q0 -88 -69 -141q-49 -39 -129 -59q109 -16 176 -72q78 -63 78 -160q0 -141 -142 -207q-115 -53 -321 -53h-453zM406 211q0 -86 28.5 -115.5t85.5 -29.5q86 0 144.5 49t58.5 143 t-63.5 140t-176.5 46h-77v-233zM406 510h86q82 0 131 37q57 43 57 123q0 76 -50 114.5t-128 38.5q-68 0 -82 -8t-14 -45v-260z" />
<glyph unicode="&#xe3;" horiz-adv-x="835" d="M49 838v57h721l21 -266l-58 -6q-31 111 -65 157q-18 25 -47 34t-66 9h-92q-43 0 -51.5 -8t-8.5 -53v-567q0 -90 26 -114t134 -24v-57h-508v57q96 10 118 31t22 107v505q0 88 -21.5 107.5t-124.5 30.5z" />
<glyph unicode="&#xe4;" horiz-adv-x="1040" d="M47 16q0 31 9.5 40.5t41.5 9.5h35q20 0 36.5 28.5t32 76.5t32 124t29.5 221.5t13 224.5q0 43 -14 57.5t-67 22.5l-64 10v58h840v-58q-96 -10 -116.5 -28.5t-20.5 -102.5v-497q0 -90 13 -113.5t62 -23.5h33q43 0 43 -50v-272h-61l-19 98q-18 98 -40.5 128t-88.5 30h-518 q-68 0 -88 -27.5t-41 -130.5l-18 -98h-64v272zM279 92q-1 -20 34 -20h203q76 0 91.5 17t15.5 108v538q0 57 -14.5 69.5t-80.5 12.5h-75q-61 0 -76 -14.5t-15 -71.5q0 -176 -21.5 -339t-53.5 -261q-8 -25 -8 -39z" />
<glyph unicode="&#xe5;" horiz-adv-x="876" d="M72 406q0 199 130 353t326 154q127 0 216.5 -89t89.5 -203q0 -57 -6.5 -69.5t-54.5 -21t-223 -19.5t-276 -11q0 -180 99 -279q86 -86 213 -86q55 0 104.5 19.5t110.5 66.5l28 -35q-59 -86 -139 -141q-102 -70 -188 -70q-197 0 -313.5 123t-116.5 308zM285 584l305 4 q27 0 32 15t5 42q0 66 -45 127.5t-109 61.5q-68 0 -122 -68.5t-66 -181.5z" />
<glyph unicode="&#xe6;" horiz-adv-x="1548" d="M43 0v57q57 0 91 32t89 122l123 195q29 41 66 64.5t77 33.5v8q-25 14 -57.5 49t-50.5 62q-43 68 -64 92q-53 63 -118 63h-45q-78 0 -78 68q0 31 25.5 47t64.5 16q72 0 129 -51q39 -35 76 -94q27 -43 76 -108.5t77 -92.5q78 -61 146 -61v194q0 86 -20.5 105.5t-121.5 29.5 v58h486v-58q-92 -10 -112.5 -29.5t-20.5 -105.5v-194q72 0 145 61q35 31 82 92q39 51 75 109.5t72 91.5q59 53 129 53q37 0 64 -16t27 -47t-18.5 -49.5t-59.5 -18.5h-43q-66 0 -119 -63q-29 -35 -66 -92q-41 -70 -106 -111v-8q41 -10 78 -31.5t65 -66.5l121 -195 q94 -154 180 -154v-57h-147q-78 0 -117 16q-55 25 -96 95q-33 55 -70 129q-27 53 -53.5 108t-60 75.5t-82.5 20.5v-251q0 -86 20.5 -105.5t118.5 -30.5v-57h-498v57q102 10 125 29.5t23 106.5v251q-47 0 -81 -19t-61.5 -76.5t-52.5 -106.5q-41 -80 -69 -131 q-39 -70 -88.5 -90.5t-127.5 -20.5h-147z" />
<glyph unicode="&#xe7;" horiz-adv-x="890" d="M63 170q0 35 26 64.5t67 29.5q55 0 86 -74q63 -143 182 -143q72 0 117 55.5t45 135.5q0 86 -35 143q-41 66 -117 65q-14 0 -45 -5t-41 -5l-47 -6q-72 0 -72 55t72 56l47 -4q12 0 45 -6.5t47 -6.5q53 0 84 39t31 107q0 80 -43 125t-113 45q-84 0 -143 -74 q-49 -59 -84 -170l-61 8l24 221q70 41 147.5 64.5t149.5 23.5q166 0 258 -62.5t92 -168.5q0 -41 -14 -66.5t-42 -48t-77 -43.5q-35 -14 -88 -28q119 -18 187 -72q80 -63 79 -168q0 -129 -121.5 -205t-299.5 -76q-94 0 -169 25t-124 70q-27 25 -38.5 49t-11.5 51z" />
<glyph unicode="&#xe8;" horiz-adv-x="1165" d="M43 0v57q109 10 130.5 29.5t21.5 108.5v505q0 86 -22.5 107.5t-129.5 30.5v57h477v-57q-84 -8 -103.5 -30t-19.5 -106v-419h9l337 419q25 29 25 56v37q0 29 -43 36l-41 7v57h436v-57q-106 -10 -127.5 -30t-21.5 -108v-505q0 -86 22.5 -107.5t126.5 -30.5v-57h-475v57 q84 8 103.5 30t19.5 106v421l-336 -409q-18 -23 -22 -27q-12 -16 -13 -33v-45q0 -27 45 -37l37 -6v-57h-436z" />
<glyph unicode="&#xe9;" horiz-adv-x="1165" d="M45 0v57q106 10 129 29.5t23 106.5v503q0 84 -23.5 105.5t-128.5 29.5v58h477v-58q-84 -8 -103.5 -29.5t-19.5 -103.5v-417h9l337 417q25 29 25 54v36q0 29 -43 37l-41 6v58h436v-58q-104 -10 -126.5 -29.5t-22.5 -105.5v-503q0 -84 23.5 -105.5t125.5 -30.5v-57h-475v57 q84 8 103.5 30t19.5 103v420l-336 -407q-18 -20 -22 -27q-12 -16 -13 -31v-45q0 -27 45 -37l37 -6v-57h-436zM342 1137q0 37 20.5 63.5t61.5 26.5q31 0 46 -17.5t15 -46.5q0 -14 -2 -20l-10 -41q-10 -57 109 -58q119 0 108 58l-10 41q-2 6 -2 20q0 27 16.5 45.5t46.5 18.5 q39 0 60.5 -25.5t21.5 -64.5q0 -70 -62 -112t-179 -42q-115 0 -177.5 42t-62.5 112z" />
<glyph unicode="&#xea;" horiz-adv-x="1073" d="M47 0v57q104 10 126 29.5t22 108.5v505q0 86 -21.5 106.5t-120.5 31.5v57h479v-57q-94 -10 -113.5 -30t-19.5 -108v-194q76 0 150 61q35 31 82 92q39 51 74.5 110.5t72.5 92.5q59 53 129 53q37 0 63.5 -16t26.5 -47t-18 -49.5t-59 -18.5h-43q-45 0 -79 -23.5t-108 -129.5 q-23 -35 -51.5 -67t-52.5 -48v-8q43 -14 69 -31q43 -27 74 -69l121 -195q53 -88 89 -122t91 -34v-57h-147q-80 0 -119 16q-55 25 -96 95q-25 45 -54 100q-35 70 -69 141q-27 55 -61.5 74.5t-84.5 19.5v-251q0 -86 21.5 -106.5t118.5 -31.5v-57h-492z" />
<glyph unicode="&#xeb;" horiz-adv-x="1017" d="M12 -6v47q61 27 106.5 78t84.5 127t63.5 206t24.5 273q0 63 -20.5 79.5t-125.5 26.5v58h828v-58q-104 -10 -127 -29.5t-23 -105.5v-503q0 -84 23.5 -105.5t126.5 -30.5v-57h-510v57q104 10 126.5 29.5t22.5 106.5v538q0 43 -4 55q-10 29 -73 29h-72q-59 0 -71.5 -12 t-12.5 -68q0 -272 -47 -454q-37 -145 -105 -234q-31 -37 -60.5 -54.5t-53.5 -17.5q-35 0 -101 19z" />
<glyph unicode="&#xec;" horiz-adv-x="1355" d="M49 0v57q63 0 90 18.5t35 59.5q2 14 13.5 74.5t11.5 155.5l16 288q0 129 -15.5 153.5t-111.5 24.5v58h320l268 -590l276 590h340v-58q-98 0 -118.5 -22.5t-20.5 -126.5l8 -477q0 -100 21.5 -124t120.5 -24v-57h-465v57q94 0 114.5 22.5t20.5 125.5l-2 534l-334 -723h-43 l-293 689l-20 -314v-57v-41v-31v-24q0 -31 -1 -54.5t-1 -42.5q4 -43 36.5 -63.5t110.5 -20.5v-57h-377z" />
<glyph unicode="&#xed;" horiz-adv-x="1165" d="M53 831v58h467v-58q-80 -8 -98.5 -28.5t-18.5 -106.5v-190h359v190q0 86 -19.5 106.5t-105.5 28.5v58h469v-58q-92 0 -112.5 -22.5t-20.5 -112.5v-503q0 -88 21.5 -112t113.5 -24v-57h-469v57q84 8 103.5 28.5t19.5 107.5v241h-359v-241q0 -86 18.5 -106.5t96.5 -29.5 v-57h-461v57q92 0 114 23.5t22 112.5v503q0 90 -23 112.5t-117 22.5z" />
<glyph unicode="&#xee;" horiz-adv-x="1067" d="M74 424q0 231 155 373q135 123 314 123q201 0 327.5 -133.5t126.5 -321.5q0 -229 -145 -367q-131 -123 -315 -123q-213 0 -344 144q-119 129 -119 305zM311 504q0 -197 69 -325t181 -128q84 0 133 72q62 90 62 289q0 195 -63.5 314.5t-178.5 119.5q-86 0 -141 -88 q-61 -96 -62 -254z" />
<glyph unicode="&#xef;" horiz-adv-x="1167" d="M55 831v58h1057v-58q-96 -8 -117.5 -29.5t-21.5 -105.5v-503q0 -84 21.5 -104.5t117.5 -31.5v-57h-475v57q86 8 105.5 28.5t19.5 107.5v546q0 53 -11.5 64.5t-66.5 11.5h-203q-53 0 -64 -11t-11 -65v-546q0 -86 18 -106.5t96 -29.5v-57h-463v57q96 10 117 29.5t21 106.5 v503q0 84 -21.5 104.5t-118.5 30.5z" />
<glyph unicode="&#xf0;" horiz-adv-x="1097" d="M33 -401q96 10 117.5 29.5t21.5 103.5v934q0 84 -18.5 100t-120.5 27v47q94 18 198.5 50t151.5 44v-143l205 110q31 12 82 12q164 0 262 -122q88 -111 88 -263q0 -219 -146 -368q-133 -139 -350 -185q-43 0 -78.5 9.5t-62.5 23.5v-276q0 -84 28.5 -108.5t147.5 -24.5v-58 h-526v58zM383 150q41 -35 86 -53.5t102 -18.5q86 0 150 74q80 94 80 274q0 178 -76 268q-66 78 -176 78q-43 0 -83 -15t-83 -46v-561z" />
<glyph unicode="&#xf1;" horiz-adv-x="862" d="M72 403q0 115 49 215.5t137 169t193 101.5q80 25 149 24q45 0 100.5 -15t82 -37.5t26.5 -55.5q0 -41 -25.5 -73t-50.5 -32q-18 0 -39 19q-55 47 -108.5 67.5t-100.5 20.5q-74 0 -129 -62q-74 -82 -73 -237q0 -193 112 -295q84 -78 185 -78q68 0 114.5 21t112.5 80l37 -37 q-66 -98 -157 -161t-183 -63q-199 0 -320 131q-113 121 -112 297z" />
<glyph unicode="&#xf2;" horiz-adv-x="935" d="M45 623l18 266h809l19 -266l-57 -7q-31 115 -64 158q-16 23 -49 32t-80 9h-68v-622q0 -84 24 -105.5t130 -30.5v-57h-510v57q102 10 123.5 29.5t21.5 106.5v622h-65q-45 0 -79 -9t-50 -32q-37 -49 -64 -158z" />
<glyph unicode="&#xf3;" horiz-adv-x="956" d="M-16 889h481l-2 -55l-66 -9q-35 -6 -35 -32q0 -12 6.5 -31t8.5 -25l182 -471q33 78 119 320q27 74 53 155q12 37 12 52q0 25 -41 30l-77 11v55h376v-55q-82 -12 -104.5 -31t-67.5 -109q-82 -170 -243 -571q-61 -147 -120.5 -288.5t-92.5 -196.5q-43 -74 -86 -105 q-35 -25 -76 -25q-47 0 -79 32t-32 71q0 51 47 63q86 23 146 76q49 43 86 115q14 31 27.5 63.5t17.5 49t4 34.5t-8 41q-80 215 -144 371q-88 211 -112 270q-39 86 -66.5 108.5t-111.5 31.5z" />
<glyph unicode="&#xf4;" horiz-adv-x="1529" d="M76 430q0 215 119.5 349t304.5 134q41 0 83 -11t76 -34v330q0 92 -22.5 112.5t-130.5 20.5v51q100 12 209 35q63 12 155 37v-594q88 53 181 53q176 0 289.5 -128t113.5 -322q0 -219 -122 -353.5t-298 -134.5q-49 0 -88 8.5t-76 32.5v-278q0 -84 24 -105.5t128 -29.5v-58 h-514v58q106 10 128.5 29.5t22.5 105.5v287q-43 -25 -90 -37.5t-90 -12.5q-172 0 -287.5 128t-115.5 327zM319 463q0 -203 68 -313q59 -98 152 -99q33 0 62 18.5t58 51.5v651q-49 68 -139 68q-82 0 -137 -90q-63 -102 -64 -287zM870 113q51 -61 140 -62q72 0 123 66 q78 98 77 317q0 178 -49 285q-55 121 -166 121q-80 0 -125 -78v-649z" />
<glyph unicode="&#xf5;" horiz-adv-x="983" d="M2 0v57q96 14 127 29q47 23 107 100l170 226l-191 295q-49 76 -80 96t-112 28v58h452v-58l-53 -8q-29 -2 -29 -22q0 -18 17 -41l118 -178q63 90 109 163q2 4 14.5 27t12.5 33q0 18 -25 20l-53 6v58h379v-58q-104 -10 -140.5 -26.5t-99.5 -93.5q-29 -37 -59.5 -76 t-92.5 -123l207 -313q57 -86 94 -108.5t123 -33.5v-57h-485v57l59 9q31 4 31 26q0 16 -18 45l-133 203q-76 -109 -84 -123q-31 -51 -45 -76q-23 -39 -23 -53t29 -20l59 -11v-57h-385z" />
<glyph unicode="&#xf6;" horiz-adv-x="1200" d="M51 0v57q100 10 122 29.5t22 106.5v503q0 86 -21.5 105.5t-122.5 29.5v58h463v-58q-74 -8 -91 -28.5t-17 -106.5v-546q0 -53 12 -65.5t63 -12.5h205q49 0 61.5 12.5t12.5 65.5v546q0 86 -19.5 106.5t-105.5 28.5v58h475v-58q-96 -8 -117.5 -29.5t-21.5 -105.5v-499 q0 -86 14 -110t57 -24h41q43 0 43 -47v-278h-65l-17 88q-18 104 -40 135q-29 39 -107 39h-846z" />
<glyph unicode="&#xf7;" horiz-adv-x="1083" d="M33 831v58h446v-58q-72 -10 -89 -28.5t-17 -93.5v-105q0 -90 45 -129t127 -39q29 0 63.5 4t69.5 11v251q0 80 -16.5 99.5t-88.5 29.5v58h461v-58q-100 -8 -122.5 -28.5t-22.5 -100.5v-509q0 -86 21.5 -105.5t123.5 -30.5v-57h-518v57q111 0 136.5 23.5t25.5 112.5v194 q-70 -8 -121 -14t-88 -6q-160 0 -240 67q-35 29 -51 72t-16 108v84q0 84 -19.5 103.5t-109.5 29.5z" />
<glyph unicode="&#xf8;" horiz-adv-x="1726" d="M53 0v57q96 0 119 23t23 113v503q0 90 -22.5 112.5t-117.5 22.5v58h467v-58q-80 -8 -98 -28.5t-18 -106.5v-546q0 -53 11 -64.5t66 -11.5h197q55 0 66.5 11t11.5 65v546q0 88 -21.5 111.5t-113.5 23.5v58h462v-58q-80 -8 -98 -28.5t-18 -106.5v-546q0 -53 11 -64.5 t67 -11.5h196q55 0 66.5 11t11.5 65v546q0 86 -18.5 106.5t-104.5 28.5v58h469v-58q-90 0 -112.5 -22.5t-22.5 -112.5v-503q0 -90 22.5 -113t118.5 -23v-57h-1620z" />
<glyph unicode="&#xf9;" horiz-adv-x="1755" d="M51 831v58h471v-58q-80 -8 -98 -28.5t-18 -106.5v-546q0 -53 11 -64.5t66 -11.5h199q55 0 66.5 11t11.5 65v546q0 86 -19.5 106.5t-107.5 28.5v58h457v-58q-82 -8 -100.5 -28.5t-18.5 -106.5v-546q0 -53 11 -64.5t67 -11.5h198q55 0 66.5 11t11.5 65v546 q0 86 -18.5 106.5t-104.5 28.5v58h475v-58q-98 -8 -119.5 -28.5t-21.5 -106.5v-499q0 -86 14.5 -110t57.5 -24h41q43 0 43 -47v-278h-66q-27 170 -55.5 216t-108.5 46h-1409v57q96 0 119 25t23 127v487q0 88 -20.5 106.5t-123.5 28.5z" />
<glyph unicode="&#xfa;" horiz-adv-x="1257" d="M45 600q10 100 21 211q4 49 4 78h716v-55q-98 0 -121.5 -24t-23.5 -114v-157h170q379 0 379 -256q0 -141 -123 -215q-113 -68 -315 -68h-467v57q102 10 123.5 29.5t21.5 106.5v548q0 53 -9 64.5t-59 11.5h-69q-43 0 -74 -9t-47 -34q-33 -49 -68 -182zM641 160 q0 -57 20.5 -75.5t81.5 -18.5q94 0 149.5 55t55.5 158q0 104 -60.5 149t-172.5 45h-74v-313z" />
<glyph unicode="&#xfb;" horiz-adv-x="1523" d="M43 0v57q98 8 119.5 28.5t21.5 107.5v503q0 88 -19.5 108.5t-109.5 29.5v55h484v-55q-96 0 -120 -24t-24 -114v-157h166q381 0 381 -260q0 -137 -125 -211q-115 -68 -313 -68h-461zM395 160q0 -57 20.5 -75.5t80.5 -18.5q94 0 149 55t55 158q0 104 -60 149t-173 45h-72 v-313zM958 831v58h492v-58q-94 0 -116.5 -22.5t-22.5 -112.5v-503q0 -88 21.5 -112t117.5 -24v-57h-487v57q94 0 115.5 24t21.5 112v503q0 90 -22.5 112.5t-119.5 22.5z" />
<glyph unicode="&#xfc;" horiz-adv-x="1019" d="M47 0v57q98 10 122 31t24 105v503q0 90 -21.5 114t-112.5 24v55h488v-55q-96 0 -120 -24t-24 -114v-157h168q381 0 381 -260q0 -139 -118.5 -209t-317.5 -70h-469zM403 160q0 -57 20.5 -75.5t78.5 -18.5q98 0 153.5 54t55.5 159q0 104 -60.5 149t-171.5 45h-76v-313z" />
<glyph unicode="&#xfd;" horiz-adv-x="946" d="M41 172q0 31 24.5 57.5t61.5 26.5q29 0 46 -16.5t36 -59.5q57 -133 190 -133q121 0 183 129q49 104 49 258l-381 -18l4 110l375 -18q0 143 -60 233q-68 100 -190 101q-102 0 -164 -76q-41 -51 -82 -166l-59 12l37 234q80 35 144 51t157 16q217 0 339.5 -120.5 t122.5 -327.5q0 -217 -142 -353.5t-353 -136.5q-86 0 -163 27t-126 75t-49 95z" />
<glyph unicode="&#xfe;" horiz-adv-x="1576" d="M47 831v58h498v-58q-98 -8 -120 -28.5t-22 -106.5v-213h175q16 197 165 320q135 111 306 110q203 0 329.5 -131t126.5 -321q0 -229 -145 -365q-131 -121 -320 -121q-215 0 -346 140q-121 127 -121 301h-170v-223q0 -86 21.5 -105.5t122.5 -30.5v-57h-498v57 q100 10 122 29.5t22 106.5v503q0 86 -21.5 105.5t-124.5 29.5zM813 500q0 -201 66.5 -325t181.5 -124q84 0 135 72q63 90 64 287q0 193 -64.5 311.5t-179.5 118.5q-84 0 -143.5 -92.5t-59.5 -247.5z" />
<glyph unicode="&#xff;" horiz-adv-x="1075" d="M41 0v57q31 4 56.5 12.5t43.5 26.5q29 25 54 68q14 27 34 76q31 78 65 122t87 66q-98 23 -156.5 79t-58.5 138q0 123 95 183.5t259 60.5h498v-58q-96 0 -116.5 -22.5t-20.5 -114.5v-499q0 -90 21.5 -114t117.5 -24v-57h-483v57q90 8 111.5 30t21.5 108v192h-66 q-76 0 -108 -47q-23 -27 -47 -86q-8 -23 -46 -123q-29 -78 -67.5 -104.5t-104.5 -26.5h-190zM403 641q0 -47 21.5 -89t62.5 -67q25 -16 62 -24t78 -8h43v309q0 43 -12.5 51t-77.5 8q-70 0 -119 -43q-57 -51 -58 -137z" />
<glyph unicode="&#x112;" horiz-adv-x="931" d="M266 1001l217 316q20 33 45 33q12 0 41 -15l37 -20q29 -16 29 -37q0 -24 -33 -49l-291 -252zM625 1001l215 316q25 33 47 33q12 0 41 -15l37 -20q29 -16 28 -37q1 -24 -32 -49l-289 -252z" />
<glyph unicode="&#x113;" horiz-adv-x="1017" d="M78 362q0 90 31.5 173t83 139.5t118.5 91.5q82 41 170 41q170 0 279 -127q8 29 12 82t4 115q0 94 -11 172.5t-40 146.5q-35 80 -98.5 121t-163.5 41q-57 0 -111.5 -12.5t-122.5 -55.5l-75 107q63 29 121.5 43t134.5 14q143 0 260 -76q109 -70 180 -196q53 -96 78 -213 q18 -93 18 -183q0 -125 -20 -247q-27 -158 -82 -271q-68 -141 -154 -211q-100 -82 -252 -82q-162 0 -261 111t-99 276zM260 293q0 -98 35 -164q45 -86 133 -86q76 0 137 55q51 47 88 131q68 174 90 367q-39 49 -79 78q-61 43 -129 43q-102 0 -177 -101q-53 -74 -75.5 -154.5 t-22.5 -168.5z" />
<glyph unicode="&#x114;" horiz-adv-x="782" d="M125 1464v115h530v-115h-530z" />
<glyph unicode="&#x115;" horiz-adv-x="876" d="M41 272q0 53 6 64.5t36 17.5t211 20.5t310 14.5q0 184 -98 283q-86 86 -215 86q-57 0 -103.5 -18.5t-111.5 -69.5l-29 35q76 111 184 167q78 41 146 41q197 0 315 -127q113 -119 113 -301q0 -213 -134 -361.5t-325 -148.5q-123 0 -214 91.5t-91 205.5zM248 240 q0 -66 45 -126.5t110 -60.5q68 0 124.5 71t66.5 177l-307 -6q-25 0 -32 -9.5t-7 -45.5z" />
<glyph unicode="&#x116;" horiz-adv-x="679" d="M102 1341l50 31l188 -219l188 219l50 -31l-213 -350h-52z" />
<glyph unicode="&#x117;" d="M29 59q16 41 69 91q39 37 107 79q119 76 119 242q0 31 -5.5 62.5t-15.5 66.5h-246v78h215q-31 80 -41 113q-23 70 -22 122q0 76 35 146q45 88 137 153q53 37 110.5 60.5t110.5 30.5q68 0 129 -31q41 -20 76 -55q14 -14 14 -35q0 -14 -6 -25.5t-20.5 -25t-40.5 -29.5 q-20 -14 -54 8q-47 33 -97 55.5t-99 22.5q-45 0 -80 -37t-35 -94q0 -49 17.5 -103.5t52.5 -117.5q29 -53 45 -87t26 -71h273v-78h-256l2 -35q0 -80 -82 -186q-61 -80 -148 -150l148 -41q172 -57 295 -57q35 0 56.5 14.5t21.5 47.5q0 25 -17 65q-6 12 -6 25q0 6 6 16 q23 27 49.5 37t55.5 10q25 0 36 -21.5t11 -50.5q0 -57 -47 -120.5t-113 -104.5q-49 -33 -103.5 -53.5t-105.5 -20.5q-43 0 -103.5 17.5t-193.5 70.5q-35 14 -65.5 26.5t-55.5 12.5q-20 0 -37.5 -19.5t-23.5 -53.5q0 -29 -43 -29q-27 0 -44 17.5t-11 41.5z" />
<glyph unicode="&#x118;" horiz-adv-x="1271" d="M20 0l617 1339l59 19l555 -1358h-1231zM164 82h813l-383 948z" />
<glyph unicode="&#x119;" d="M98 606q0 111 53.5 213.5t145.5 169.5q57 41 119.5 67.5t115.5 39.5v174h86v-162l25 2q129 0 209 -49q29 -23 29 -57q0 -39 -26 -67t-52 -28q-18 0 -37 17q-78 66 -148 78v-676q80 0 135.5 24.5t127.5 85.5l37 -41q-59 -78 -141.5 -135t-158.5 -74v-204h-86v198 q-193 0 -317 133q-117 123 -117 291zM295 700q0 -150 80 -247q63 -80 157 -109v668q-84 0 -149 -66q-88 -86 -88 -246z" />
<glyph unicode="&#x11a;" horiz-adv-x="1124" d="M31 279v112h385l157 285h-542v112h606l186 336l101 -57l-156 -279h338v-112h-399l-160 -285h559v-112h-621l-184 -330l-100 57l151 273h-321z" />
<glyph unicode="&#x11b;" horiz-adv-x="894" d="M88 1544q0 43 27.5 75t72.5 32q41 0 71 -32t30 -75q0 -45 -29 -73.5t-74 -28.5q-43 0 -70.5 27.5t-27.5 74.5zM307 1419l117 254q10 25 37 25q10 0 35 -8l32 -15q35 -14 35 -39q0 -16 -20 -41l-178 -202zM606 1544q0 43 28 75t73 32q41 0 70.5 -32t29.5 -75 q0 -45 -28.5 -73.5t-73.5 -28.5q-43 0 -71 27.5t-28 74.5z" />
<glyph unicode="&#x11c;" horiz-adv-x="1200" d="M72 0v102h1058v-102h-1058zM72 244v112l936 418l-936 418v113l1058 -482v-98z" />
<glyph unicode="&#x11d;" horiz-adv-x="905" d="M-43 1593q0 14 14 35l19 25q31 33 51 33q18 0 37 -17l254 -207l-33 -41l-295 127q-47 18 -47 45zM328 1591q0 14 16 37l18 25q31 33 52 33q18 0 37 -17l254 -207l-35 -41l-293 127q-49 20 -49 43z" />
<glyph unicode="&#x11e;" horiz-adv-x="802" d="M121 1585q0 29 19.5 52.5t52.5 23.5q43 0 63 -31q14 -20 18 -53q0 -86 127 -86q121 0 129 86q0 31 15 51q23 33 65 33q35 0 54.5 -23.5t19.5 -52.5q0 -76 -80 -121t-205 -45q-127 0 -202.5 44t-75.5 122z" />
<glyph unicode="&#x11f;" horiz-adv-x="1062" d="M72 426q0 229 153 367q136 120 316 120q197 0 323.5 -133t126.5 -319q0 -225 -145 -363q-131 -123 -309 -123q-219 0 -349 142q-117 127 -116 309zM315 502h428q0 156 -63.5 246t-167.5 90q-80 0 -135 -86q-62 -94 -62 -250zM319 416q0 -162 67 -263.5t171 -101.5 q80 0 129 74q62 92 62 291h-429z" />
<glyph unicode="&#x120;" horiz-adv-x="1200" d="M72 0v102h1058v-102h-1058zM72 725v98l1058 482v-113l-937 -418l937 -418v-112z" />
<glyph unicode="&#x121;" horiz-adv-x="1062" d="M70 420q0 127 49 223t160 158l116 63q-139 47 -202 113q-55 57 -56 137q0 106 110.5 201.5t248.5 95.5q63 0 114 -4q154 -12 170 -12q35 0 74 1t61 21q10 8 21.5 4t7.5 -14q-31 -86 -86 -130t-141 -44q-41 0 -117 8q-170 18 -225 19q-74 0 -108 -26t-34 -69 q0 -57 70 -104t180 -74q266 -63 388 -189t122 -343q0 -225 -145 -359q-131 -121 -313 -121q-211 0 -345 142q-120 129 -120 303zM311 471q0 -186 63.5 -303t180.5 -117q92 0 143.5 86.5t51.5 274.5q0 176 -54 276q-61 117 -196 148q-88 -25 -138.5 -119t-50.5 -246z" />
<glyph unicode="&#x122;" horiz-adv-x="1497" d="M51 539q0 119 86 209t213 90t260 -103q41 -31 138 -123q135 121 188 156q109 70 229 70q119 0 200 -88t81 -207q0 -131 -90 -215t-223 -84q-180 0 -385 225q-125 -115 -181 -152q-113 -74 -235 -73q-115 0 -198 90t-83 205zM162 530q0 -80 60.5 -132t139.5 -52 q63 0 125 33q72 39 191 162q-94 88 -150 123q-96 61 -188 61q-72 0 -125 -61.5t-53 -133.5zM817 541q156 -137 182 -154q68 -41 138 -41q80 0 140 54.5t60 134.5q0 86 -61.5 138t-149.5 52q-84 0 -180 -70q-10 -8 -129 -114z" />
<glyph unicode="&#x123;" horiz-adv-x="1503" d="M45 805q0 72 6 143q18 215 19 223h34q25 -35 44.5 -43t64.5 -8h313q0 96 -34.5 125t-141.5 29v57h578v-57q-106 0 -141 -28.5t-35 -125.5h325q39 0 58.5 10.5t48.5 40.5h35q0 -78 6 -165q0 -6 16 -195l-63 -6q-31 141 -76 186q-43 49 -223 49h-127v-301h198 q229 0 353 -89t124 -257q0 -109 -47 -185.5t-133 -127.5q-72 -41 -173 -60.5t-226 -19.5h-500v57q121 0 149.5 41t28.5 207v735h-84q-123 0 -178 -14t-82 -47q-37 -43 -73 -174h-64zM752 311q0 -143 28.5 -186t122.5 -43q119 0 189 63q84 76 84 226q0 152 -85 223.5 t-235 71.5h-104v-355z" />
<glyph unicode="&#x124;" horiz-adv-x="1007" d="M-8 834v55h465v-55l-64 -11q-33 -2 -33 -30q0 -12 15 -52q35 -94 69 -186q53 -137 115 -285l135 365q100 272 207 272q39 0 61.5 -20.5t22.5 -55.5q0 -29 -18.5 -49t-44.5 -24l-17 -2q-33 -6 -59.5 -37t-71.5 -125q-33 -68 -100.5 -238.5t-143.5 -369.5h-79l-291 719 q-35 82 -57.5 101t-110.5 28z" />
<glyph unicode="&#x125;" horiz-adv-x="563" d="M49 0v57q96 8 117.5 30t21.5 108v456q0 94 -17 112.5t-114 29.5v47q78 12 173 33.5t169 44.5v-723q0 -86 21.5 -106.5t120.5 -31.5v-57h-492z" />
<glyph unicode="&#x126;" horiz-adv-x="811" d="M111 1503q0 43 27.5 75t72.5 32q41 0 70.5 -32t29.5 -75q0 -45 -28.5 -73.5t-73.5 -28.5q-43 0 -70.5 27.5t-27.5 74.5zM498 1503q0 43 27.5 75t72.5 32q41 0 70.5 -32t29.5 -75q0 -45 -28.5 -73.5t-73.5 -28.5q-43 0 -70.5 27.5t-27.5 74.5z" />
<glyph unicode="&#x127;" horiz-adv-x="788" d="M102 1655l29 43l264 -131l260 131l31 -43l-272 -225h-41z" />
<glyph unicode="&#x128;" horiz-adv-x="765" d="M350 1462l336 209q25 14 41 15q23 0 47 -33l21 -27q16 -18 16 -37q0 -27 -41 -37l-397 -131z" />
<glyph unicode="&#x129;" horiz-adv-x="1103" d="M20 920l310 155l387 -803l264 1606l84 -10l-320 -1946l-491 1024l-201 -98z" />
<glyph unicode="&#x12a;" horiz-adv-x="1239" d="M37 621q6 45 14 140t8 128h351v51q0 84 -21.5 104.5t-120.5 30.5v58h494v-58q-98 -10 -121 -30.5t-23 -104.5l7 -51h370q0 -51 11 -160q4 -41 12 -108l-57 -9q-20 61 -25 74q-20 53 -45 84q-16 25 -54 35t-89 10h-125v-309h170q186 0 283.5 -62.5t97.5 -189.5 q0 -129 -117 -195q-104 -59 -277 -59h-510v57q98 8 120 28.5t22 107.5v622h-105q-59 0 -92 -9t-51.5 -33.5t-33.5 -61.5t-36 -99zM623 197q0 -84 18 -106.5t92 -22.5q84 0 135 38q63 49 64 152q0 180 -209 180h-100v-241z" />
<glyph unicode="&#x12b;" d="M-16 -205q0 33 27.5 62.5t45.5 29.5q10 0 63.5 -30.5t80.5 -30.5q43 0 62.5 46t43.5 304l49 512h-184v78h197l16 90q16 113 59 200t121 156q61 53 137 88t138 35q39 0 95 -28.5t56 -59.5q0 -35 -25.5 -64.5t-50.5 -29.5q-39 20 -75 43q-59 31 -99 31q-53 0 -77 -45 q-16 -29 -33 -115t-41 -301h252v-78h-260l-52 -393q-29 -221 -102 -354q-53 -94 -137 -154q-53 -39 -97 -54.5t-79 -15.5q-39 0 -85 27t-46 51z" />
<glyph unicode="&#x12c;" horiz-adv-x="765" d="M16 1587q0 16 17 39l18 27q25 33 49 33q14 0 39 -15l336 -209l-22 -41l-398 131q-39 10 -39 35z" />
<glyph unicode="&#x12d;" horiz-adv-x="1454" d="M41 1274v57h553v-57l-68 -8q-72 -8 -71 -49q0 -18 12 -56l332 -862q6 18 188 532q55 160 98 269q98 264 236 264q41 0 66.5 -21.5t25.5 -58.5q0 -33 -22.5 -51.5t-53.5 -22.5l-18 -2q-39 0 -72 -34.5t-86 -143.5q-37 -76 -102 -250q-18 -51 -135 -372q-78 -211 -154 -420 h-94l-418 1081q-49 129 -92 166q-33 29 -125 39z" />
<glyph unicode="&#x12e;" horiz-adv-x="905" d="M225 1462l254 207q18 16 37 17q25 0 51 -33l19 -25q16 -18 16 -37q0 -23 -49 -43l-295 -127zM608 1462l244 207q18 16 37 17q23 0 49 -33l20 -25q14 -20 15 -37q0 -23 -47 -43l-295 -127z" />
<glyph unicode="&#x12f;" horiz-adv-x="733" d="M102 1096v110h529v-110h-529z" />
<glyph unicode="&#x130;" horiz-adv-x="894" d="M88 1544q0 43 27.5 75t72.5 32q41 0 71 -32t30 -75q0 -45 -29 -73.5t-74 -28.5q-43 0 -70.5 27.5t-27.5 74.5zM328 1636q0 25 34 39l33 15q16 8 35 8q27 0 37 -25l117 -254l-58 -26l-178 202q-20 25 -20 41zM606 1544q0 43 28 75t73 32q41 0 70.5 -32t29.5 -75 q0 -45 -28.5 -73.5t-73.5 -28.5q-43 0 -71 27.5t-28 74.5z" />
<glyph unicode="&#x131;" horiz-adv-x="1200" d="M82 344q53 76 120.5 117t153.5 41q74 0 154 -19q31 -8 109.5 -33.5t117.5 -35.5q70 -18 127 -19q63 0 109.5 30t83.5 79l63 -68q-43 -66 -113.5 -106.5t-152.5 -40.5q-104 0 -287 67q-61 23 -107 33t-110 10q-68 0 -119 -34.5t-81 -88.5zM82 651q53 76 120.5 117 t153.5 41q74 0 154 -18q31 -8 109.5 -34t117.5 -36q70 -18 127 -19q63 0 109.5 30t83.5 79l63 -68q-43 -66 -113.5 -106.5t-152.5 -40.5q-104 0 -287 68q-61 23 -107 33t-110 10q-68 0 -119 -35t-81 -88z" />
<glyph unicode="&#x132;" horiz-adv-x="819" d="M66 1137q0 41 28.5 71.5t71.5 30.5q41 0 68.5 -29.5t27.5 -72.5q0 -45 -26.5 -72t-69.5 -27t-71.5 27t-28.5 72zM268 1276q0 20 31 39l37 20q23 12 37 13q27 0 41 -41l118 -306l-45 -24l-192 246q-27 33 -27 53zM557 1137q0 43 27.5 72.5t70.5 29.5q41 0 69 -29.5 t28 -72.5q0 -45 -27 -72t-70 -27t-70.5 28t-27.5 71z" />
<glyph unicode="&#x133;" horiz-adv-x="778" d="M127 1417q0 111 69.5 177.5t196.5 66.5q119 0 189.5 -66.5t70.5 -177.5h-53q-20 55 -75.5 93t-133.5 38t-133 -36.5t-78 -94.5h-53z" />
<glyph unicode="&#x134;" horiz-adv-x="819" d="M168 1145q0 37 21.5 63.5t62.5 26.5q31 0 46 -17.5t15 -46.5q0 -14 -2 -20l-10 -41q-10 -57 109 -57t108 57l-10 41q-2 6 -2 20q0 27 16.5 45.5t46.5 18.5q39 0 60.5 -25.5t21.5 -64.5q0 -68 -63.5 -112t-177.5 -44q-113 0 -177.5 44t-64.5 112z" />
<glyph unicode="&#x135;" horiz-adv-x="819" d="M160 1008q0 150 76 221q66 61 174 61q111 0 174 -59q76 -72 75 -223h-57q-10 84 -62 126t-130 42q-76 0 -128.5 -43t-62.5 -125h-59z" />
<glyph unicode="&#x136;" horiz-adv-x="819" d="M-70 1278q0 20 29 37l37 20q29 14 43 15q23 0 43 -33l217 -316l-45 -24l-291 252q-33 27 -33 49zM274 1278q0 23 29 37l37 20q29 14 43 15q25 0 45 -33l215 -316l-45 -24l-289 252q-35 29 -35 49z" />
<glyph unicode="&#x137;" horiz-adv-x="593" d="M240 1004l215 313q23 33 47 33q16 0 41 -13l37 -22q29 -14 28 -35q0 -23 -33 -51l-290 -250z" />
<glyph unicode="&#x138;" horiz-adv-x="776" d="M104 1137q0 45 28 74.5t75 29.5q41 0 69.5 -30.5t28.5 -73.5q0 -45 -28.5 -74t-69.5 -29q-102 0 -103 103zM469 1137q0 45 27.5 74.5t74.5 29.5q41 0 70 -30.5t29 -73.5q0 -45 -29 -74t-70 -29q-102 0 -102 103z" />
<glyph unicode="&#x139;" horiz-adv-x="819" d="M66 1137q0 41 28.5 71.5t71.5 30.5q41 0 68.5 -29.5t27.5 -72.5q0 -45 -26.5 -72t-69.5 -27t-71.5 27t-28.5 72zM283 1001l118 306q14 41 41 41q14 0 37 -13l37 -20q31 -18 31 -41q0 -18 -27 -51l-192 -246zM557 1137q0 43 27.5 72.5t70.5 29.5q41 0 69 -29.5t28 -72.5 q0 -45 -27 -72t-70 -27t-70.5 28t-27.5 71z" />
<glyph unicode="&#x13a;" d="M-25 1221v57h484v-57l-90 -13q-35 -10 -35 -26q0 -10 14 -47q25 -59 98 -211q55 -115 111 -228q49 106 127 289q51 123 57 137q14 35 15 56q0 29 -47 34l-82 9v57h397v-57q-82 -10 -109.5 -33t-82 -117t-98.5 -185t-93 -202h277v-78h-304q-4 -25 -4 -45v-20v-109h308v-78 h-308v-100q0 -131 29 -164t152 -33v-57h-574v57q125 0 152.5 32t27.5 165v100h-323v78h323v80q0 31 -3 43t-19 51h-301v78h268q-39 84 -98.5 198.5t-89.5 176.5q-51 102 -81 126.5t-98 35.5z" />
<glyph unicode="&#x13b;" horiz-adv-x="1286" d="M113 516v105h1061v-105h-1061zM528 248q0 47 33 79.5t82 32.5q43 0 78 -32.5t35 -79.5q0 -45 -35 -80t-78 -35q-49 0 -82 33t-33 82zM530 889q0 45 35 80t78 35q49 0 82 -33t33 -82q0 -47 -33 -80t-82 -33q-43 0 -78 33t-35 80z" />
<glyph unicode="&#x13c;" horiz-adv-x="1525" d="M84 647q0 281 174 483q199 231 533 232q274 0 462.5 -190.5t188.5 -485.5q0 -322 -195.5 -519.5t-498.5 -197.5q-291 0 -477.5 194.5t-186.5 483.5zM334 745h846q-23 256 -139.5 395.5t-301.5 139.5q-176 0 -286 -137q-119 -146 -119 -398zM336 641q0 -260 126 -425 t333 -165q176 0 280 139q113 150 113 424v27h-852z" />
<glyph unicode="&#x152;" horiz-adv-x="2002" d="M59 1274v57h590l-2 -57q-113 0 -141.5 -42t-28.5 -206v-274h545v274q0 166 -26.5 207t-139.5 41v57h576v-57q-125 0 -155 -40t-30 -208v-274h207q229 0 355 -95.5t126 -257.5q0 -117 -45 -191.5t-135 -127.5q-72 -41 -173 -60.5t-224 -19.5h-524v57q127 0 157.5 41 t30.5 207v367h-545v-367q0 -168 27.5 -208t150.5 -40v-57h-587v57q123 0 151.5 40t28.5 208v721q0 168 -30 208t-159 40zM1247 311q0 -145 30 -188t132 -43q117 0 186 63q86 78 86 234q0 152 -86.5 226.5t-236.5 74.5h-111v-367z" />
<glyph unicode="&#x153;" horiz-adv-x="1568" d="M61 0v57q90 8 109.5 27.5t19.5 108.5v505q0 84 -24.5 108.5t-104.5 24.5l2 58h449v-58q-74 -8 -92.5 -28.5t-18.5 -104.5v-192h359v192q0 86 -19.5 105.5t-109.5 27.5v58h473v-58q-90 -8 -111.5 -27.5t-21.5 -105.5v-192h168q379 0 379 -246q0 -129 -117 -194.5 t-305 -65.5h-465v57q88 8 108.5 28.5t20.5 107.5v249h-359v-249q0 -86 16.5 -106.5t94.5 -29.5v-57h-451zM971 160q0 -59 20.5 -76.5t95.5 -17.5q86 0 137.5 50t51.5 146q0 92 -57.5 136t-147.5 44h-100v-282z" />
<glyph unicode="&#x160;" horiz-adv-x="1822" d="M10 -12v49q70 25 133 88q57 55 99 129q76 133 116.5 374.5t40.5 518.5q0 80 -31.5 103.5t-150.5 23.5v57h1020v-57q-117 0 -145.5 -41t-28.5 -207v-242h203q227 0 355 -99t128 -269q0 -123 -48 -202t-136 -130q-76 -45 -178.5 -64.5t-231.5 -19.5h-493v57q119 0 147.5 41 t28.5 207v805q0 106 -9.5 124.5t-68.5 18.5h-154q-82 0 -97 -10t-15 -63q0 -457 -46.5 -718t-146.5 -396q-41 -55 -77 -77t-77 -22q-33 0 -45 2t-92 19zM1063 287q0 -125 30.5 -167t123.5 -42q115 0 188 67q90 82 90 248q0 164 -87 241t-243 77h-102v-424z" />
<glyph unicode="&#x161;" horiz-adv-x="1413" d="M12 -6v47q61 27 106.5 78t84.5 127t63.5 206t24.5 273q0 63 -20.5 79.5t-125.5 26.5v58h816v-58q-104 -10 -126 -29.5t-22 -105.5v-157h180q381 0 381 -260q0 -137 -125 -211q-115 -68 -315 -68h-481v57q104 10 126.5 29.5t22.5 106.5v538q0 43 -4 55q-10 29 -74 29h-61 q-59 0 -71.5 -12t-12.5 -68q0 -272 -47 -454q-37 -145 -105 -234q-31 -37 -60.5 -54.5t-53.5 -17.5q-35 0 -101 19zM813 160q0 -57 21.5 -75.5t83.5 -18.5q100 0 157.5 54t57.5 159q0 104 -60.5 149t-173.5 45h-86v-313z" />
<glyph unicode="&#x178;" horiz-adv-x="1163" d="M55 831v58h459v-58q-74 -8 -91 -28.5t-17 -106.5v-546q0 -53 12 -65.5t63 -12.5h203q51 0 63.5 12.5t12.5 65.5v546q0 86 -19.5 106.5t-105.5 28.5v58h469v-58q-92 -8 -112.5 -28.5t-20.5 -106.5v-503q0 -86 20.5 -106.5t110.5 -29.5v-57h-346q-53 0 -77 -12.5t-32 -57.5 q-10 -39 -19.5 -95t-17.5 -109h-55q-10 68 -16.5 109.5t-20.5 94.5q-8 43 -32.5 56.5t-75.5 13.5h-353v57q94 0 116 21.5t22 114.5v503q0 88 -21.5 111.5t-118.5 23.5z" />
<glyph unicode="&#x192;" horiz-adv-x="835" d="M49 831v58h721l21 -264l-58 -7q-29 106 -65 156q-18 25 -47 34t-66 9h-90q-43 0 -51 -8t-8 -53v-563q0 -88 25.5 -112t133.5 -24v-57h-510v57q96 8 118 30t22 106v503q0 86 -21.5 105.5t-124.5 29.5zM336 993l215 314q23 31 47 30q8 0 41 -12l37 -20q29 -16 29 -37 q0 -24 -33 -49l-291 -250z" />
<glyph unicode="&#x2000;" horiz-adv-x="939" />
<glyph unicode="&#x2001;" horiz-adv-x="1878" />
<glyph unicode="&#x2002;" horiz-adv-x="939" />
<glyph unicode="&#x2003;" horiz-adv-x="1878" />
<glyph unicode="&#x2004;" horiz-adv-x="626" />
<glyph unicode="&#x2005;" horiz-adv-x="469" />
<glyph unicode="&#x2006;" horiz-adv-x="313" />
<glyph unicode="&#x2007;" horiz-adv-x="313" />
<glyph unicode="&#x2008;" horiz-adv-x="234" />
<glyph unicode="&#x2009;" horiz-adv-x="375" />
<glyph unicode="&#x200a;" horiz-adv-x="104" />
<glyph unicode="&#x2010;" horiz-adv-x="686" d="M92 393v139h502v-139h-502z" />
<glyph unicode="&#x2011;" horiz-adv-x="686" d="M92 393v139h502v-139h-502z" />
<glyph unicode="&#x2012;" horiz-adv-x="686" d="M92 393v139h502v-139h-502z" />
<glyph unicode="&#x2013;" horiz-adv-x="1024" d="M0 401v123h1024v-123h-1024z" />
<glyph unicode="&#x2014;" horiz-adv-x="2048" d="M0 401v123h2048v-123h-2048z" />
<glyph unicode="&#x2018;" horiz-adv-x="516" d="M92 1149q0 123 98 211q80 73 213 108l21 -53q-172 -76 -172 -209q0 -59 40 -99t103 -52q25 -12 25 -62q0 -39 -32 -64.5t-71 -25.5q-84 0 -151 66q-74 72 -74 180z" />
<glyph unicode="&#x2019;" horiz-adv-x="516" d="M92 938q86 41 129 92t43 121q0 59 -38 99t-105 53q-25 12 -25 61q0 41 32 65.5t71 24.5q84 0 154.5 -68.5t70.5 -177.5q0 -125 -98 -213q-84 -75 -213 -106z" />
<glyph unicode="&#x201a;" horiz-adv-x="495" d="M82 213q0 41 36 69.5t83 28.5q80 0 146.5 -72.5t66.5 -177.5q0 -119 -97 -213q-81 -79 -206 -122l-29 53q156 84 156 221q0 111 -127 152q-29 0 -29 61z" />
<glyph unicode="&#x201c;" horiz-adv-x="933" d="M92 1149q0 123 98 211q80 73 213 108l21 -53q-172 -76 -172 -209q0 -59 40 -99t103 -52q25 -12 25 -62q0 -39 -32 -64.5t-71 -25.5q-84 0 -151 66q-74 72 -74 180zM510 1149q0 123 98 211q80 73 213 108l21 -53q-172 -76 -172 -209q0 -59 40 -99t103 -52q25 -12 25 -62 q0 -39 -32 -64.5t-71 -25.5q-84 0 -151 66q-74 72 -74 180z" />
<glyph unicode="&#x201d;" horiz-adv-x="933" d="M92 938q86 41 129 92t43 121q0 59 -38 99t-105 53q-25 12 -25 61q0 41 32 65.5t71 24.5q84 0 154.5 -68.5t70.5 -177.5q0 -125 -98 -213q-84 -75 -213 -106zM510 938q86 41 129 92t43 121q0 59 -38 99t-105 53q-25 12 -25 61q0 41 32 65.5t70 24.5q84 0 155 -68.5 t71 -177.5q0 -125 -99 -213q-84 -75 -213 -106z" />
<glyph unicode="&#x201e;" horiz-adv-x="905" d="M82 213q0 41 36 69.5t83 28.5q80 0 146.5 -72.5t66.5 -177.5q0 -119 -97 -213q-81 -79 -206 -122l-29 53q156 84 156 221q0 111 -127 152q-29 0 -29 61zM492 213q0 41 35.5 69.5t82.5 28.5q80 0 146.5 -72.5t66.5 -177.5q0 -119 -96 -213q-82 -79 -207 -122l-28 53 q156 84 155 221q0 111 -127 152q-29 0 -28 61z" />
<glyph unicode="&#x2020;" horiz-adv-x="1007" d="M80 877q18 35 47 61.5t59 40.5q100 -70 275 -70q0 109 -15.5 168.5t-66.5 151.5q20 39 52 72.5t71 60.5q78 -49 123 -133q-47 -84 -64.5 -149.5t-17.5 -170.5q174 0 274 70q31 -14 61.5 -41t49.5 -61q-41 -84 -111 -107q-100 70 -274 70q0 -74 16 -136.5t57 -142.5 q-29 -72 -49 -230.5t-20 -363.5q0 -51 1 -113.5t3 -136.5h-94q0 35 2 115t2 135q0 203 -18.5 362.5t-47.5 231.5q37 76 51.5 140.5t14.5 138.5q-174 0 -275 -70q-63 20 -106 107z" />
<glyph unicode="&#x2021;" horiz-adv-x="1011" d="M82 217q18 35 47 63.5t59 43.5q100 -70 275 -70q0 133 -15.5 200.5t-62.5 110.5q43 47 60.5 118t17.5 189q-174 0 -275 -69q-27 8 -57.5 38.5t-48.5 63.5q20 37 48 64.5t58 38.5q96 -66 275 -66q0 86 -15.5 141.5t-66.5 149.5q49 92 123 129q33 -16 67.5 -53t55.5 -76 q-45 -84 -63.5 -147.5t-18.5 -143.5q178 0 274 66q25 -8 57.5 -39t53.5 -64q-25 -37 -53.5 -64.5t-57.5 -37.5q-100 70 -274 69q0 -121 17.5 -190.5t64.5 -116.5q-47 -41 -64.5 -111.5t-17.5 -199.5q174 0 274 70q27 -12 57.5 -41t53.5 -66q-25 -37 -53.5 -64.5t-57.5 -37.5 q-100 70 -274 69q0 -113 15 -175t67 -156q-49 -91 -123 -132q-74 41 -123 132q45 86 63.5 155.5t18.5 175.5q-174 0 -275 -69q-27 8 -57.5 38.5t-48.5 63.5z" />
<glyph unicode="&#x2022;" horiz-adv-x="612" d="M82 680q0 94 65.5 161.5t159.5 67.5q92 0 157.5 -67.5t65.5 -161.5t-65.5 -161.5t-157.5 -67.5t-158.5 66.5t-66.5 162.5z" />
<glyph unicode="&#x2026;" horiz-adv-x="2048" d="M201 123q0 61 39 102t100 41t102 -41t41 -102q0 -66 -41 -107t-102 -41q-59 0 -99 40t-40 108zM883 123q0 61 39 102t100 41t102 -41t41 -102q0 -66 -41 -107t-102 -41q-59 0 -99 40t-40 108zM1565 123q0 61 38.5 102t100.5 41q61 0 102 -41t41 -102q0 -66 -41 -107 t-102 -41q-59 0 -99 40t-40 108z" />
<glyph unicode="&#x202f;" horiz-adv-x="375" />
<glyph unicode="&#x2030;" horiz-adv-x="2387" d="M82 924q0 143 74 250q87 129 243 129q150 0 238 -127q76 -111 76 -252t-72 -248q-86 -129 -242 -129t-243 127q-74 106 -74 250zM252 924q0 -113 27 -193q38 -115 120 -115q84 0 119 115q25 80 25 193q0 119 -23 192q-35 117 -121 117q-82 0 -120 -115q-27 -80 -27 -194z M362 -29l828 1356l78 -49l-828 -1360zM942 352q0 143 74 250q88 129 244 129q150 0 237 -127q76 -111 76 -252t-72 -248q-86 -129 -241 -129q-156 0 -244 127q-74 106 -74 250zM1112 352q0 -113 27 -192q39 -115 121 -115q84 0 118 115q25 80 25 192q0 119 -23 193 q-35 117 -120 117q-82 0 -121 -115q-27 -80 -27 -195zM1675 352q0 143 74 250q88 129 244 129q150 0 237 -127q76 -111 76 -252t-72 -248q-86 -129 -241 -129q-156 0 -244 127q-74 106 -74 250zM1845 352q0 -113 27 -192q39 -115 121 -115q84 0 118 115q25 80 25 192 q0 119 -22 193q-35 117 -121 117q-82 0 -121 -115q-27 -80 -27 -195z" />
<glyph unicode="&#x2039;" horiz-adv-x="552" d="M92 463q84 96 168 199q94 115 160 198l41 -33l-189 -364l189 -361l-41 -36q-86 111 -158 198q-27 31 -170 199z" />
<glyph unicode="&#x203a;" horiz-adv-x="552" d="M92 102l189 361l-189 364l41 33q86 -111 158 -198q27 -31 170 -199q-84 -96 -168 -199q-94 -114 -160 -198z" />
<glyph unicode="&#x205f;" horiz-adv-x="469" />
<glyph unicode="&#x2122;" horiz-adv-x="1669" d="M61 1159l13 195h24q19 -23 56 -23h434q27 0 51 23h25l12 -193l-43 -2q-10 31 -18.5 59.5t-20.5 43.5q-23 20 -113 20h-51v-420q0 -78 17.5 -97.5t91.5 -19.5v-40h-342v40q70 0 86 18.5t16 98.5v420h-37q-57 0 -81.5 -6t-38 -23.5t-23.5 -43t-17 -50.5h-41zM702 705v40 q49 0 69 10.5t25 41t10 66.5t5 98l10 192q0 96 -11 116.5t-81 20.5v41h225l211 -434l205 434h225v-41q-66 0 -78 -16.5t-12 -95.5l8 -322q0 -78 13.5 -94.5t81.5 -16.5v-40h-305v40q59 0 71 16.5t12 94.5l-4 365l-239 -504h-31l-229 485l-11 -252v-107.5t3.5 -54t24 -32 t69.5 -11.5v-40h-267z" />
<glyph unicode="&#x25fc;" horiz-adv-x="890" d="M0 0v891h891v-891h-891z" />
</font>
</defs>
</svg>
